%TF.GenerationSoftware,KiCad,Pcbnew,8.0.1*%
%TF.CreationDate,2024-04-05T10:25:06+02:00*%
%TF.ProjectId,qlexternal512kram_MIX,716c6578-7465-4726-9e61-6c3531326b72,0.1*%
%TF.SameCoordinates,Original*%
%TF.FileFunction,Soldermask,Bot*%
%TF.FilePolarity,Negative*%
%FSLAX46Y46*%
G04 Gerber Fmt 4.6, Leading zero omitted, Abs format (unit mm)*
G04 Created by KiCad (PCBNEW 8.0.1) date 2024-04-05 10:25:06*
%MOMM*%
%LPD*%
G01*
G04 APERTURE LIST*
G04 Aperture macros list*
%AMRoundRect*
0 Rectangle with rounded corners*
0 $1 Rounding radius*
0 $2 $3 $4 $5 $6 $7 $8 $9 X,Y pos of 4 corners*
0 Add a 4 corners polygon primitive as box body*
4,1,4,$2,$3,$4,$5,$6,$7,$8,$9,$2,$3,0*
0 Add four circle primitives for the rounded corners*
1,1,$1+$1,$2,$3*
1,1,$1+$1,$4,$5*
1,1,$1+$1,$6,$7*
1,1,$1+$1,$8,$9*
0 Add four rect primitives between the rounded corners*
20,1,$1+$1,$2,$3,$4,$5,0*
20,1,$1+$1,$4,$5,$6,$7,0*
20,1,$1+$1,$6,$7,$8,$9,0*
20,1,$1+$1,$8,$9,$2,$3,0*%
G04 Aperture macros list end*
%ADD10C,2.850000*%
%ADD11RoundRect,0.249999X0.525001X0.525001X-0.525001X0.525001X-0.525001X-0.525001X0.525001X-0.525001X0*%
%ADD12C,1.550000*%
%ADD13RoundRect,0.249999X-0.525001X-0.525001X0.525001X-0.525001X0.525001X0.525001X-0.525001X0.525001X0*%
%ADD14R,1.600000X2.400000*%
%ADD15O,1.600000X2.400000*%
G04 APERTURE END LIST*
D10*
%TO.C,J1*%
X97300000Y-55245000D03*
X186200000Y-55245000D03*
D11*
X181120000Y-57785000D03*
D12*
X178580000Y-57785000D03*
X176040000Y-57785000D03*
X173500000Y-57785000D03*
X170960000Y-57785000D03*
X168420000Y-57785000D03*
X165880000Y-57785000D03*
X163340000Y-57785000D03*
X160800000Y-57785000D03*
X158260000Y-57785000D03*
X155720000Y-57785000D03*
X153180000Y-57785000D03*
X150640000Y-57785000D03*
X148100000Y-57785000D03*
X145560000Y-57785000D03*
X143020000Y-57785000D03*
X140480000Y-57785000D03*
X137940000Y-57785000D03*
X135400000Y-57785000D03*
X132860000Y-57785000D03*
X130320000Y-57785000D03*
X127780000Y-57785000D03*
X125240000Y-57785000D03*
X122700000Y-57785000D03*
X120160000Y-57785000D03*
X117620000Y-57785000D03*
X115080000Y-57785000D03*
X112540000Y-57785000D03*
X110000000Y-57785000D03*
X107460000Y-57785000D03*
X104920000Y-57785000D03*
X102380000Y-57785000D03*
X181120000Y-60325000D03*
X178580000Y-60325000D03*
X176040000Y-60325000D03*
X173500000Y-60325000D03*
X170960000Y-60325000D03*
X168420000Y-60325000D03*
X165880000Y-60325000D03*
X163340000Y-60325000D03*
X160800000Y-60325000D03*
X158260000Y-60325000D03*
X155720000Y-60325000D03*
X153180000Y-60325000D03*
X150640000Y-60325000D03*
X148100000Y-60325000D03*
X145560000Y-60325000D03*
X143020000Y-60325000D03*
X140480000Y-60325000D03*
X137940000Y-60325000D03*
X135400000Y-60325000D03*
X132860000Y-60325000D03*
X130320000Y-60325000D03*
X127780000Y-60325000D03*
X125240000Y-60325000D03*
X122700000Y-60325000D03*
X120160000Y-60325000D03*
X117620000Y-60325000D03*
X115080000Y-60325000D03*
X112540000Y-60325000D03*
X110000000Y-60325000D03*
X107460000Y-60325000D03*
X104920000Y-60325000D03*
X102380000Y-60325000D03*
%TD*%
D10*
%TO.C,J2*%
X186150000Y-85725000D03*
X97250000Y-85725000D03*
D13*
X181060000Y-83185000D03*
D12*
X178520000Y-83185000D03*
X175980000Y-83185000D03*
X173440000Y-83185000D03*
X170900000Y-83185000D03*
X168360000Y-83185000D03*
X165820000Y-83185000D03*
X163280000Y-83185000D03*
X160740000Y-83185000D03*
X158200000Y-83185000D03*
X155660000Y-83185000D03*
X153120000Y-83185000D03*
X150580000Y-83185000D03*
X148040000Y-83185000D03*
X145500000Y-83185000D03*
X142960000Y-83185000D03*
X140420000Y-83185000D03*
X137880000Y-83185000D03*
X135340000Y-83185000D03*
X132800000Y-83185000D03*
X130260000Y-83185000D03*
X127720000Y-83185000D03*
X125180000Y-83185000D03*
X122640000Y-83185000D03*
X120100000Y-83185000D03*
X117560000Y-83185000D03*
X115020000Y-83185000D03*
X112480000Y-83185000D03*
X109940000Y-83185000D03*
X107400000Y-83185000D03*
X104860000Y-83185000D03*
X102320000Y-83185000D03*
X181060000Y-80645000D03*
X178520000Y-80645000D03*
X175980000Y-80645000D03*
X173440000Y-80645000D03*
X170900000Y-80645000D03*
X168360000Y-80645000D03*
X165820000Y-80645000D03*
X163280000Y-80645000D03*
X160740000Y-80645000D03*
X158200000Y-80645000D03*
X155660000Y-80645000D03*
X153120000Y-80645000D03*
X150580000Y-80645000D03*
X148040000Y-80645000D03*
X145500000Y-80645000D03*
X142960000Y-80645000D03*
X140420000Y-80645000D03*
X137880000Y-80645000D03*
X135340000Y-80645000D03*
X132800000Y-80645000D03*
X130260000Y-80645000D03*
X127720000Y-80645000D03*
X125180000Y-80645000D03*
X122640000Y-80645000D03*
X120100000Y-80645000D03*
X117560000Y-80645000D03*
X115020000Y-80645000D03*
X112480000Y-80645000D03*
X109940000Y-80645000D03*
X107400000Y-80645000D03*
X104860000Y-80645000D03*
X102320000Y-80645000D03*
%TD*%
D14*
%TO.C,U2*%
X158215000Y-74310000D03*
D15*
X160755000Y-74310000D03*
X163295000Y-74310000D03*
X165835000Y-74310000D03*
X168375000Y-74310000D03*
X170915000Y-74310000D03*
X173455000Y-74310000D03*
X175995000Y-74310000D03*
X178535000Y-74310000D03*
X181075000Y-74310000D03*
X181075000Y-66690000D03*
X178535000Y-66690000D03*
X175995000Y-66690000D03*
X173455000Y-66690000D03*
X170915000Y-66690000D03*
X168375000Y-66690000D03*
X165835000Y-66690000D03*
X163295000Y-66690000D03*
X160755000Y-66690000D03*
X158215000Y-66690000D03*
%TD*%
M02*
