M48
; DRILL file {KiCad 8.0.1} date 2024-04-05T10:25:09+0200
; FORMAT={-:-/ absolute / metric / decimal}
; #@! TF.CreationDate,2024-04-05T10:25:09+02:00
; #@! TF.GenerationSoftware,Kicad,Pcbnew,8.0.1
; #@! TF.FileFunction,Plated,1,2,PTH
FMAT,2
METRIC
; #@! TA.AperFunction,Plated,PTH,ViaDrill
T1C0.400
; #@! TA.AperFunction,Plated,PTH,ComponentDrill
T2C0.800
; #@! TA.AperFunction,Plated,PTH,ComponentDrill
T3C1.000
%
G90
G05
T1
X120.62Y-74.485
X120.62Y-76.985
X121.92Y-73.185
X121.92Y-75.985
X123.92Y-72.39
X126.46Y-73.025
X129.0Y-74.295
X129.02Y-57.035
X131.54Y-75.39
X131.57Y-57.035
X134.12Y-57.035
X134.625Y-65.913
X139.706Y-65.913
X157.575Y-76.2
X162.02Y-56.485
X163.863Y-64.664
X163.876Y-69.188
X166.465Y-72.39
X170.275Y-86.36
X170.91Y-55.245
X171.87Y-87.185
X172.053Y-64.643
X186.32Y-68.185
X186.62Y-66.485
X188.57Y-68.385
T2
X158.215Y-66.69
X158.215Y-74.31
X160.755Y-66.69
X160.755Y-74.31
X163.295Y-66.69
X163.295Y-74.31
X165.835Y-66.69
X165.835Y-74.31
X168.375Y-66.69
X168.375Y-74.31
X170.915Y-66.69
X170.915Y-74.31
X173.455Y-66.69
X173.455Y-74.31
X175.995Y-66.69
X175.995Y-74.31
X178.535Y-66.69
X178.535Y-74.31
X181.075Y-66.69
X181.075Y-74.31
T3
X102.32Y-80.645
X102.32Y-83.185
X102.38Y-57.785
X102.38Y-60.325
X104.86Y-80.645
X104.86Y-83.185
X104.92Y-57.785
X104.92Y-60.325
X107.4Y-80.645
X107.4Y-83.185
X107.46Y-57.785
X107.46Y-60.325
X109.94Y-80.645
X109.94Y-83.185
X110.0Y-57.785
X110.0Y-60.325
X112.48Y-80.645
X112.48Y-83.185
X112.54Y-57.785
X112.54Y-60.325
X115.02Y-80.645
X115.02Y-83.185
X115.08Y-57.785
X115.08Y-60.325
X117.56Y-80.645
X117.56Y-83.185
X117.62Y-57.785
X117.62Y-60.325
X120.1Y-80.645
X120.1Y-83.185
X120.16Y-57.785
X120.16Y-60.325
X122.64Y-80.645
X122.64Y-83.185
X122.7Y-57.785
X122.7Y-60.325
X125.18Y-80.645
X125.18Y-83.185
X125.24Y-57.785
X125.24Y-60.325
X127.72Y-80.645
X127.72Y-83.185
X127.78Y-57.785
X127.78Y-60.325
X130.26Y-80.645
X130.26Y-83.185
X130.32Y-57.785
X130.32Y-60.325
X132.8Y-80.645
X132.8Y-83.185
X132.86Y-57.785
X132.86Y-60.325
X135.34Y-80.645
X135.34Y-83.185
X135.4Y-57.785
X135.4Y-60.325
X137.88Y-80.645
X137.88Y-83.185
X137.94Y-57.785
X137.94Y-60.325
X140.42Y-80.645
X140.42Y-83.185
X140.48Y-57.785
X140.48Y-60.325
X142.96Y-80.645
X142.96Y-83.185
X143.02Y-57.785
X143.02Y-60.325
X145.5Y-80.645
X145.5Y-83.185
X145.56Y-57.785
X145.56Y-60.325
X148.04Y-80.645
X148.04Y-83.185
X148.1Y-57.785
X148.1Y-60.325
X150.58Y-80.645
X150.58Y-83.185
X150.64Y-57.785
X150.64Y-60.325
X153.12Y-80.645
X153.12Y-83.185
X153.18Y-57.785
X153.18Y-60.325
X155.66Y-80.645
X155.66Y-83.185
X155.72Y-57.785
X155.72Y-60.325
X158.2Y-80.645
X158.2Y-83.185
X158.26Y-57.785
X158.26Y-60.325
X160.74Y-80.645
X160.74Y-83.185
X160.8Y-57.785
X160.8Y-60.325
X163.28Y-80.645
X163.28Y-83.185
X163.34Y-57.785
X163.34Y-60.325
X165.82Y-80.645
X165.82Y-83.185
X165.88Y-57.785
X165.88Y-60.325
X168.36Y-80.645
X168.36Y-83.185
X168.42Y-57.785
X168.42Y-60.325
X170.9Y-80.645
X170.9Y-83.185
X170.96Y-57.785
X170.96Y-60.325
X173.44Y-80.645
X173.44Y-83.185
X173.5Y-57.785
X173.5Y-60.325
X175.98Y-80.645
X175.98Y-83.185
X176.04Y-57.785
X176.04Y-60.325
X178.52Y-80.645
X178.52Y-83.185
X178.58Y-57.785
X178.58Y-60.325
X181.06Y-80.645
X181.06Y-83.185
X181.12Y-57.785
X181.12Y-60.325
M30
