%TF.GenerationSoftware,KiCad,Pcbnew,8.0.1*%
%TF.CreationDate,2024-04-05T10:25:06+02:00*%
%TF.ProjectId,qlexternal512kram_MIX,716c6578-7465-4726-9e61-6c3531326b72,0.1*%
%TF.SameCoordinates,Original*%
%TF.FileFunction,Legend,Top*%
%TF.FilePolarity,Positive*%
%FSLAX46Y46*%
G04 Gerber Fmt 4.6, Leading zero omitted, Abs format (unit mm)*
G04 Created by KiCad (PCBNEW 8.0.1) date 2024-04-05 10:25:06*
%MOMM*%
%LPD*%
G01*
G04 APERTURE LIST*
%ADD10C,0.150000*%
%ADD11C,0.300000*%
%ADD12C,0.120000*%
%ADD13C,0.000000*%
G04 APERTURE END LIST*
D10*
X137715951Y-85814819D02*
X137715951Y-86529104D01*
X137715951Y-86529104D02*
X137668332Y-86671961D01*
X137668332Y-86671961D02*
X137573094Y-86767200D01*
X137573094Y-86767200D02*
X137430237Y-86814819D01*
X137430237Y-86814819D02*
X137334999Y-86814819D01*
X138668332Y-86814819D02*
X138192142Y-86814819D01*
X138192142Y-86814819D02*
X138192142Y-85814819D01*
X139573094Y-86719580D02*
X139525475Y-86767200D01*
X139525475Y-86767200D02*
X139382618Y-86814819D01*
X139382618Y-86814819D02*
X139287380Y-86814819D01*
X139287380Y-86814819D02*
X139144523Y-86767200D01*
X139144523Y-86767200D02*
X139049285Y-86671961D01*
X139049285Y-86671961D02*
X139001666Y-86576723D01*
X139001666Y-86576723D02*
X138954047Y-86386247D01*
X138954047Y-86386247D02*
X138954047Y-86243390D01*
X138954047Y-86243390D02*
X139001666Y-86052914D01*
X139001666Y-86052914D02*
X139049285Y-85957676D01*
X139049285Y-85957676D02*
X139144523Y-85862438D01*
X139144523Y-85862438D02*
X139287380Y-85814819D01*
X139287380Y-85814819D02*
X139382618Y-85814819D01*
X139382618Y-85814819D02*
X139525475Y-85862438D01*
X139525475Y-85862438D02*
X139573094Y-85910057D01*
X140287380Y-85814819D02*
X140287380Y-86529104D01*
X140287380Y-86529104D02*
X140239761Y-86671961D01*
X140239761Y-86671961D02*
X140144523Y-86767200D01*
X140144523Y-86767200D02*
X140001666Y-86814819D01*
X140001666Y-86814819D02*
X139906428Y-86814819D01*
X141239761Y-86814819D02*
X140763571Y-86814819D01*
X140763571Y-86814819D02*
X140763571Y-85814819D01*
X142144523Y-86719580D02*
X142096904Y-86767200D01*
X142096904Y-86767200D02*
X141954047Y-86814819D01*
X141954047Y-86814819D02*
X141858809Y-86814819D01*
X141858809Y-86814819D02*
X141715952Y-86767200D01*
X141715952Y-86767200D02*
X141620714Y-86671961D01*
X141620714Y-86671961D02*
X141573095Y-86576723D01*
X141573095Y-86576723D02*
X141525476Y-86386247D01*
X141525476Y-86386247D02*
X141525476Y-86243390D01*
X141525476Y-86243390D02*
X141573095Y-86052914D01*
X141573095Y-86052914D02*
X141620714Y-85957676D01*
X141620714Y-85957676D02*
X141715952Y-85862438D01*
X141715952Y-85862438D02*
X141858809Y-85814819D01*
X141858809Y-85814819D02*
X141954047Y-85814819D01*
X141954047Y-85814819D02*
X142096904Y-85862438D01*
X142096904Y-85862438D02*
X142144523Y-85910057D01*
X142858809Y-85814819D02*
X142858809Y-86529104D01*
X142858809Y-86529104D02*
X142811190Y-86671961D01*
X142811190Y-86671961D02*
X142715952Y-86767200D01*
X142715952Y-86767200D02*
X142573095Y-86814819D01*
X142573095Y-86814819D02*
X142477857Y-86814819D01*
X143811190Y-86814819D02*
X143335000Y-86814819D01*
X143335000Y-86814819D02*
X143335000Y-85814819D01*
X144715952Y-86719580D02*
X144668333Y-86767200D01*
X144668333Y-86767200D02*
X144525476Y-86814819D01*
X144525476Y-86814819D02*
X144430238Y-86814819D01*
X144430238Y-86814819D02*
X144287381Y-86767200D01*
X144287381Y-86767200D02*
X144192143Y-86671961D01*
X144192143Y-86671961D02*
X144144524Y-86576723D01*
X144144524Y-86576723D02*
X144096905Y-86386247D01*
X144096905Y-86386247D02*
X144096905Y-86243390D01*
X144096905Y-86243390D02*
X144144524Y-86052914D01*
X144144524Y-86052914D02*
X144192143Y-85957676D01*
X144192143Y-85957676D02*
X144287381Y-85862438D01*
X144287381Y-85862438D02*
X144430238Y-85814819D01*
X144430238Y-85814819D02*
X144525476Y-85814819D01*
X144525476Y-85814819D02*
X144668333Y-85862438D01*
X144668333Y-85862438D02*
X144715952Y-85910057D01*
X145430238Y-85814819D02*
X145430238Y-86529104D01*
X145430238Y-86529104D02*
X145382619Y-86671961D01*
X145382619Y-86671961D02*
X145287381Y-86767200D01*
X145287381Y-86767200D02*
X145144524Y-86814819D01*
X145144524Y-86814819D02*
X145049286Y-86814819D01*
X146382619Y-86814819D02*
X145906429Y-86814819D01*
X145906429Y-86814819D02*
X145906429Y-85814819D01*
X147287381Y-86719580D02*
X147239762Y-86767200D01*
X147239762Y-86767200D02*
X147096905Y-86814819D01*
X147096905Y-86814819D02*
X147001667Y-86814819D01*
X147001667Y-86814819D02*
X146858810Y-86767200D01*
X146858810Y-86767200D02*
X146763572Y-86671961D01*
X146763572Y-86671961D02*
X146715953Y-86576723D01*
X146715953Y-86576723D02*
X146668334Y-86386247D01*
X146668334Y-86386247D02*
X146668334Y-86243390D01*
X146668334Y-86243390D02*
X146715953Y-86052914D01*
X146715953Y-86052914D02*
X146763572Y-85957676D01*
X146763572Y-85957676D02*
X146858810Y-85862438D01*
X146858810Y-85862438D02*
X147001667Y-85814819D01*
X147001667Y-85814819D02*
X147096905Y-85814819D01*
X147096905Y-85814819D02*
X147239762Y-85862438D01*
X147239762Y-85862438D02*
X147287381Y-85910057D01*
X183416541Y-60539903D02*
X183492731Y-60539903D01*
X183492731Y-60539903D02*
X183568922Y-60587522D01*
X183568922Y-60587522D02*
X183607017Y-60635141D01*
X183607017Y-60635141D02*
X183645112Y-60730379D01*
X183645112Y-60730379D02*
X183683207Y-60920855D01*
X183683207Y-60920855D02*
X183683207Y-61158950D01*
X183683207Y-61158950D02*
X183645112Y-61349426D01*
X183645112Y-61349426D02*
X183607017Y-61444664D01*
X183607017Y-61444664D02*
X183568922Y-61492284D01*
X183568922Y-61492284D02*
X183492731Y-61539903D01*
X183492731Y-61539903D02*
X183416541Y-61539903D01*
X183416541Y-61539903D02*
X183340350Y-61492284D01*
X183340350Y-61492284D02*
X183302255Y-61444664D01*
X183302255Y-61444664D02*
X183264160Y-61349426D01*
X183264160Y-61349426D02*
X183226064Y-61158950D01*
X183226064Y-61158950D02*
X183226064Y-60920855D01*
X183226064Y-60920855D02*
X183264160Y-60730379D01*
X183264160Y-60730379D02*
X183302255Y-60635141D01*
X183302255Y-60635141D02*
X183340350Y-60587522D01*
X183340350Y-60587522D02*
X183416541Y-60539903D01*
X184178446Y-60539903D02*
X184254636Y-60539903D01*
X184254636Y-60539903D02*
X184330827Y-60587522D01*
X184330827Y-60587522D02*
X184368922Y-60635141D01*
X184368922Y-60635141D02*
X184407017Y-60730379D01*
X184407017Y-60730379D02*
X184445112Y-60920855D01*
X184445112Y-60920855D02*
X184445112Y-61158950D01*
X184445112Y-61158950D02*
X184407017Y-61349426D01*
X184407017Y-61349426D02*
X184368922Y-61444664D01*
X184368922Y-61444664D02*
X184330827Y-61492284D01*
X184330827Y-61492284D02*
X184254636Y-61539903D01*
X184254636Y-61539903D02*
X184178446Y-61539903D01*
X184178446Y-61539903D02*
X184102255Y-61492284D01*
X184102255Y-61492284D02*
X184064160Y-61444664D01*
X184064160Y-61444664D02*
X184026065Y-61349426D01*
X184026065Y-61349426D02*
X183987969Y-61158950D01*
X183987969Y-61158950D02*
X183987969Y-60920855D01*
X183987969Y-60920855D02*
X184026065Y-60730379D01*
X184026065Y-60730379D02*
X184064160Y-60635141D01*
X184064160Y-60635141D02*
X184102255Y-60587522D01*
X184102255Y-60587522D02*
X184178446Y-60539903D01*
X184787970Y-61158950D02*
X185397494Y-61158950D01*
X186159398Y-60539903D02*
X185778446Y-60539903D01*
X185778446Y-60539903D02*
X185740350Y-61016093D01*
X185740350Y-61016093D02*
X185778446Y-60968474D01*
X185778446Y-60968474D02*
X185854636Y-60920855D01*
X185854636Y-60920855D02*
X186045112Y-60920855D01*
X186045112Y-60920855D02*
X186121303Y-60968474D01*
X186121303Y-60968474D02*
X186159398Y-61016093D01*
X186159398Y-61016093D02*
X186197493Y-61111331D01*
X186197493Y-61111331D02*
X186197493Y-61349426D01*
X186197493Y-61349426D02*
X186159398Y-61444664D01*
X186159398Y-61444664D02*
X186121303Y-61492284D01*
X186121303Y-61492284D02*
X186045112Y-61539903D01*
X186045112Y-61539903D02*
X185854636Y-61539903D01*
X185854636Y-61539903D02*
X185778446Y-61492284D01*
X185778446Y-61492284D02*
X185740350Y-61444664D01*
X186959398Y-61539903D02*
X186502255Y-61539903D01*
X186730827Y-61539903D02*
X186730827Y-60539903D01*
X186730827Y-60539903D02*
X186654636Y-60682760D01*
X186654636Y-60682760D02*
X186578446Y-60777998D01*
X186578446Y-60777998D02*
X186502255Y-60825617D01*
X187264160Y-60635141D02*
X187302256Y-60587522D01*
X187302256Y-60587522D02*
X187378446Y-60539903D01*
X187378446Y-60539903D02*
X187568922Y-60539903D01*
X187568922Y-60539903D02*
X187645113Y-60587522D01*
X187645113Y-60587522D02*
X187683208Y-60635141D01*
X187683208Y-60635141D02*
X187721303Y-60730379D01*
X187721303Y-60730379D02*
X187721303Y-60825617D01*
X187721303Y-60825617D02*
X187683208Y-60968474D01*
X187683208Y-60968474D02*
X187226065Y-61539903D01*
X187226065Y-61539903D02*
X187721303Y-61539903D01*
X188064161Y-61539903D02*
X188064161Y-60539903D01*
X188140351Y-61158950D02*
X188368923Y-61539903D01*
X188368923Y-60873236D02*
X188064161Y-61254188D01*
X188978446Y-61016093D02*
X189092732Y-61063712D01*
X189092732Y-61063712D02*
X189130827Y-61111331D01*
X189130827Y-61111331D02*
X189168923Y-61206569D01*
X189168923Y-61206569D02*
X189168923Y-61349426D01*
X189168923Y-61349426D02*
X189130827Y-61444664D01*
X189130827Y-61444664D02*
X189092732Y-61492284D01*
X189092732Y-61492284D02*
X189016542Y-61539903D01*
X189016542Y-61539903D02*
X188711780Y-61539903D01*
X188711780Y-61539903D02*
X188711780Y-60539903D01*
X188711780Y-60539903D02*
X188978446Y-60539903D01*
X188978446Y-60539903D02*
X189054637Y-60587522D01*
X189054637Y-60587522D02*
X189092732Y-60635141D01*
X189092732Y-60635141D02*
X189130827Y-60730379D01*
X189130827Y-60730379D02*
X189130827Y-60825617D01*
X189130827Y-60825617D02*
X189092732Y-60920855D01*
X189092732Y-60920855D02*
X189054637Y-60968474D01*
X189054637Y-60968474D02*
X188978446Y-61016093D01*
X188978446Y-61016093D02*
X188711780Y-61016093D01*
X183416541Y-62149847D02*
X183492731Y-62149847D01*
X183492731Y-62149847D02*
X183568922Y-62197466D01*
X183568922Y-62197466D02*
X183607017Y-62245085D01*
X183607017Y-62245085D02*
X183645112Y-62340323D01*
X183645112Y-62340323D02*
X183683207Y-62530799D01*
X183683207Y-62530799D02*
X183683207Y-62768894D01*
X183683207Y-62768894D02*
X183645112Y-62959370D01*
X183645112Y-62959370D02*
X183607017Y-63054608D01*
X183607017Y-63054608D02*
X183568922Y-63102228D01*
X183568922Y-63102228D02*
X183492731Y-63149847D01*
X183492731Y-63149847D02*
X183416541Y-63149847D01*
X183416541Y-63149847D02*
X183340350Y-63102228D01*
X183340350Y-63102228D02*
X183302255Y-63054608D01*
X183302255Y-63054608D02*
X183264160Y-62959370D01*
X183264160Y-62959370D02*
X183226064Y-62768894D01*
X183226064Y-62768894D02*
X183226064Y-62530799D01*
X183226064Y-62530799D02*
X183264160Y-62340323D01*
X183264160Y-62340323D02*
X183302255Y-62245085D01*
X183302255Y-62245085D02*
X183340350Y-62197466D01*
X183340350Y-62197466D02*
X183416541Y-62149847D01*
X184445112Y-63149847D02*
X183987969Y-63149847D01*
X184216541Y-63149847D02*
X184216541Y-62149847D01*
X184216541Y-62149847D02*
X184140350Y-62292704D01*
X184140350Y-62292704D02*
X184064160Y-62387942D01*
X184064160Y-62387942D02*
X183987969Y-62435561D01*
X184787970Y-62768894D02*
X185397494Y-62768894D01*
X185740350Y-62245085D02*
X185778446Y-62197466D01*
X185778446Y-62197466D02*
X185854636Y-62149847D01*
X185854636Y-62149847D02*
X186045112Y-62149847D01*
X186045112Y-62149847D02*
X186121303Y-62197466D01*
X186121303Y-62197466D02*
X186159398Y-62245085D01*
X186159398Y-62245085D02*
X186197493Y-62340323D01*
X186197493Y-62340323D02*
X186197493Y-62435561D01*
X186197493Y-62435561D02*
X186159398Y-62578418D01*
X186159398Y-62578418D02*
X185702255Y-63149847D01*
X185702255Y-63149847D02*
X186197493Y-63149847D01*
X186921303Y-62149847D02*
X186540351Y-62149847D01*
X186540351Y-62149847D02*
X186502255Y-62626037D01*
X186502255Y-62626037D02*
X186540351Y-62578418D01*
X186540351Y-62578418D02*
X186616541Y-62530799D01*
X186616541Y-62530799D02*
X186807017Y-62530799D01*
X186807017Y-62530799D02*
X186883208Y-62578418D01*
X186883208Y-62578418D02*
X186921303Y-62626037D01*
X186921303Y-62626037D02*
X186959398Y-62721275D01*
X186959398Y-62721275D02*
X186959398Y-62959370D01*
X186959398Y-62959370D02*
X186921303Y-63054608D01*
X186921303Y-63054608D02*
X186883208Y-63102228D01*
X186883208Y-63102228D02*
X186807017Y-63149847D01*
X186807017Y-63149847D02*
X186616541Y-63149847D01*
X186616541Y-63149847D02*
X186540351Y-63102228D01*
X186540351Y-63102228D02*
X186502255Y-63054608D01*
X187645113Y-62149847D02*
X187492732Y-62149847D01*
X187492732Y-62149847D02*
X187416541Y-62197466D01*
X187416541Y-62197466D02*
X187378446Y-62245085D01*
X187378446Y-62245085D02*
X187302256Y-62387942D01*
X187302256Y-62387942D02*
X187264160Y-62578418D01*
X187264160Y-62578418D02*
X187264160Y-62959370D01*
X187264160Y-62959370D02*
X187302256Y-63054608D01*
X187302256Y-63054608D02*
X187340351Y-63102228D01*
X187340351Y-63102228D02*
X187416541Y-63149847D01*
X187416541Y-63149847D02*
X187568922Y-63149847D01*
X187568922Y-63149847D02*
X187645113Y-63102228D01*
X187645113Y-63102228D02*
X187683208Y-63054608D01*
X187683208Y-63054608D02*
X187721303Y-62959370D01*
X187721303Y-62959370D02*
X187721303Y-62721275D01*
X187721303Y-62721275D02*
X187683208Y-62626037D01*
X187683208Y-62626037D02*
X187645113Y-62578418D01*
X187645113Y-62578418D02*
X187568922Y-62530799D01*
X187568922Y-62530799D02*
X187416541Y-62530799D01*
X187416541Y-62530799D02*
X187340351Y-62578418D01*
X187340351Y-62578418D02*
X187302256Y-62626037D01*
X187302256Y-62626037D02*
X187264160Y-62721275D01*
X188064161Y-63149847D02*
X188064161Y-62149847D01*
X188140351Y-62768894D02*
X188368923Y-63149847D01*
X188368923Y-62483180D02*
X188064161Y-62864132D01*
X188978446Y-62626037D02*
X189092732Y-62673656D01*
X189092732Y-62673656D02*
X189130827Y-62721275D01*
X189130827Y-62721275D02*
X189168923Y-62816513D01*
X189168923Y-62816513D02*
X189168923Y-62959370D01*
X189168923Y-62959370D02*
X189130827Y-63054608D01*
X189130827Y-63054608D02*
X189092732Y-63102228D01*
X189092732Y-63102228D02*
X189016542Y-63149847D01*
X189016542Y-63149847D02*
X188711780Y-63149847D01*
X188711780Y-63149847D02*
X188711780Y-62149847D01*
X188711780Y-62149847D02*
X188978446Y-62149847D01*
X188978446Y-62149847D02*
X189054637Y-62197466D01*
X189054637Y-62197466D02*
X189092732Y-62245085D01*
X189092732Y-62245085D02*
X189130827Y-62340323D01*
X189130827Y-62340323D02*
X189130827Y-62435561D01*
X189130827Y-62435561D02*
X189092732Y-62530799D01*
X189092732Y-62530799D02*
X189054637Y-62578418D01*
X189054637Y-62578418D02*
X188978446Y-62626037D01*
X188978446Y-62626037D02*
X188711780Y-62626037D01*
X183683207Y-64759791D02*
X183226064Y-64759791D01*
X183454636Y-64759791D02*
X183454636Y-63759791D01*
X183454636Y-63759791D02*
X183378445Y-63902648D01*
X183378445Y-63902648D02*
X183302255Y-63997886D01*
X183302255Y-63997886D02*
X183226064Y-64045505D01*
X184178446Y-63759791D02*
X184254636Y-63759791D01*
X184254636Y-63759791D02*
X184330827Y-63807410D01*
X184330827Y-63807410D02*
X184368922Y-63855029D01*
X184368922Y-63855029D02*
X184407017Y-63950267D01*
X184407017Y-63950267D02*
X184445112Y-64140743D01*
X184445112Y-64140743D02*
X184445112Y-64378838D01*
X184445112Y-64378838D02*
X184407017Y-64569314D01*
X184407017Y-64569314D02*
X184368922Y-64664552D01*
X184368922Y-64664552D02*
X184330827Y-64712172D01*
X184330827Y-64712172D02*
X184254636Y-64759791D01*
X184254636Y-64759791D02*
X184178446Y-64759791D01*
X184178446Y-64759791D02*
X184102255Y-64712172D01*
X184102255Y-64712172D02*
X184064160Y-64664552D01*
X184064160Y-64664552D02*
X184026065Y-64569314D01*
X184026065Y-64569314D02*
X183987969Y-64378838D01*
X183987969Y-64378838D02*
X183987969Y-64140743D01*
X183987969Y-64140743D02*
X184026065Y-63950267D01*
X184026065Y-63950267D02*
X184064160Y-63855029D01*
X184064160Y-63855029D02*
X184102255Y-63807410D01*
X184102255Y-63807410D02*
X184178446Y-63759791D01*
X184787970Y-64378838D02*
X185397494Y-64378838D01*
X186197493Y-64759791D02*
X185740350Y-64759791D01*
X185968922Y-64759791D02*
X185968922Y-63759791D01*
X185968922Y-63759791D02*
X185892731Y-63902648D01*
X185892731Y-63902648D02*
X185816541Y-63997886D01*
X185816541Y-63997886D02*
X185740350Y-64045505D01*
X186578446Y-64759791D02*
X186730827Y-64759791D01*
X186730827Y-64759791D02*
X186807017Y-64712172D01*
X186807017Y-64712172D02*
X186845113Y-64664552D01*
X186845113Y-64664552D02*
X186921303Y-64521695D01*
X186921303Y-64521695D02*
X186959398Y-64331219D01*
X186959398Y-64331219D02*
X186959398Y-63950267D01*
X186959398Y-63950267D02*
X186921303Y-63855029D01*
X186921303Y-63855029D02*
X186883208Y-63807410D01*
X186883208Y-63807410D02*
X186807017Y-63759791D01*
X186807017Y-63759791D02*
X186654636Y-63759791D01*
X186654636Y-63759791D02*
X186578446Y-63807410D01*
X186578446Y-63807410D02*
X186540351Y-63855029D01*
X186540351Y-63855029D02*
X186502255Y-63950267D01*
X186502255Y-63950267D02*
X186502255Y-64188362D01*
X186502255Y-64188362D02*
X186540351Y-64283600D01*
X186540351Y-64283600D02*
X186578446Y-64331219D01*
X186578446Y-64331219D02*
X186654636Y-64378838D01*
X186654636Y-64378838D02*
X186807017Y-64378838D01*
X186807017Y-64378838D02*
X186883208Y-64331219D01*
X186883208Y-64331219D02*
X186921303Y-64283600D01*
X186921303Y-64283600D02*
X186959398Y-64188362D01*
X187264160Y-63855029D02*
X187302256Y-63807410D01*
X187302256Y-63807410D02*
X187378446Y-63759791D01*
X187378446Y-63759791D02*
X187568922Y-63759791D01*
X187568922Y-63759791D02*
X187645113Y-63807410D01*
X187645113Y-63807410D02*
X187683208Y-63855029D01*
X187683208Y-63855029D02*
X187721303Y-63950267D01*
X187721303Y-63950267D02*
X187721303Y-64045505D01*
X187721303Y-64045505D02*
X187683208Y-64188362D01*
X187683208Y-64188362D02*
X187226065Y-64759791D01*
X187226065Y-64759791D02*
X187721303Y-64759791D01*
X188064161Y-64759791D02*
X188064161Y-63759791D01*
X188140351Y-64378838D02*
X188368923Y-64759791D01*
X188368923Y-64093124D02*
X188064161Y-64474076D01*
X188978446Y-64235981D02*
X189092732Y-64283600D01*
X189092732Y-64283600D02*
X189130827Y-64331219D01*
X189130827Y-64331219D02*
X189168923Y-64426457D01*
X189168923Y-64426457D02*
X189168923Y-64569314D01*
X189168923Y-64569314D02*
X189130827Y-64664552D01*
X189130827Y-64664552D02*
X189092732Y-64712172D01*
X189092732Y-64712172D02*
X189016542Y-64759791D01*
X189016542Y-64759791D02*
X188711780Y-64759791D01*
X188711780Y-64759791D02*
X188711780Y-63759791D01*
X188711780Y-63759791D02*
X188978446Y-63759791D01*
X188978446Y-63759791D02*
X189054637Y-63807410D01*
X189054637Y-63807410D02*
X189092732Y-63855029D01*
X189092732Y-63855029D02*
X189130827Y-63950267D01*
X189130827Y-63950267D02*
X189130827Y-64045505D01*
X189130827Y-64045505D02*
X189092732Y-64140743D01*
X189092732Y-64140743D02*
X189054637Y-64188362D01*
X189054637Y-64188362D02*
X188978446Y-64235981D01*
X188978446Y-64235981D02*
X188711780Y-64235981D01*
X183683207Y-66369735D02*
X183226064Y-66369735D01*
X183454636Y-66369735D02*
X183454636Y-65369735D01*
X183454636Y-65369735D02*
X183378445Y-65512592D01*
X183378445Y-65512592D02*
X183302255Y-65607830D01*
X183302255Y-65607830D02*
X183226064Y-65655449D01*
X184445112Y-66369735D02*
X183987969Y-66369735D01*
X184216541Y-66369735D02*
X184216541Y-65369735D01*
X184216541Y-65369735D02*
X184140350Y-65512592D01*
X184140350Y-65512592D02*
X184064160Y-65607830D01*
X184064160Y-65607830D02*
X183987969Y-65655449D01*
X184787970Y-65988782D02*
X185397494Y-65988782D01*
X186197493Y-66369735D02*
X185740350Y-66369735D01*
X185968922Y-66369735D02*
X185968922Y-65369735D01*
X185968922Y-65369735D02*
X185892731Y-65512592D01*
X185892731Y-65512592D02*
X185816541Y-65607830D01*
X185816541Y-65607830D02*
X185740350Y-65655449D01*
X186502255Y-65464973D02*
X186540351Y-65417354D01*
X186540351Y-65417354D02*
X186616541Y-65369735D01*
X186616541Y-65369735D02*
X186807017Y-65369735D01*
X186807017Y-65369735D02*
X186883208Y-65417354D01*
X186883208Y-65417354D02*
X186921303Y-65464973D01*
X186921303Y-65464973D02*
X186959398Y-65560211D01*
X186959398Y-65560211D02*
X186959398Y-65655449D01*
X186959398Y-65655449D02*
X186921303Y-65798306D01*
X186921303Y-65798306D02*
X186464160Y-66369735D01*
X186464160Y-66369735D02*
X186959398Y-66369735D01*
X187416541Y-65798306D02*
X187340351Y-65750687D01*
X187340351Y-65750687D02*
X187302256Y-65703068D01*
X187302256Y-65703068D02*
X187264160Y-65607830D01*
X187264160Y-65607830D02*
X187264160Y-65560211D01*
X187264160Y-65560211D02*
X187302256Y-65464973D01*
X187302256Y-65464973D02*
X187340351Y-65417354D01*
X187340351Y-65417354D02*
X187416541Y-65369735D01*
X187416541Y-65369735D02*
X187568922Y-65369735D01*
X187568922Y-65369735D02*
X187645113Y-65417354D01*
X187645113Y-65417354D02*
X187683208Y-65464973D01*
X187683208Y-65464973D02*
X187721303Y-65560211D01*
X187721303Y-65560211D02*
X187721303Y-65607830D01*
X187721303Y-65607830D02*
X187683208Y-65703068D01*
X187683208Y-65703068D02*
X187645113Y-65750687D01*
X187645113Y-65750687D02*
X187568922Y-65798306D01*
X187568922Y-65798306D02*
X187416541Y-65798306D01*
X187416541Y-65798306D02*
X187340351Y-65845925D01*
X187340351Y-65845925D02*
X187302256Y-65893544D01*
X187302256Y-65893544D02*
X187264160Y-65988782D01*
X187264160Y-65988782D02*
X187264160Y-66179258D01*
X187264160Y-66179258D02*
X187302256Y-66274496D01*
X187302256Y-66274496D02*
X187340351Y-66322116D01*
X187340351Y-66322116D02*
X187416541Y-66369735D01*
X187416541Y-66369735D02*
X187568922Y-66369735D01*
X187568922Y-66369735D02*
X187645113Y-66322116D01*
X187645113Y-66322116D02*
X187683208Y-66274496D01*
X187683208Y-66274496D02*
X187721303Y-66179258D01*
X187721303Y-66179258D02*
X187721303Y-65988782D01*
X187721303Y-65988782D02*
X187683208Y-65893544D01*
X187683208Y-65893544D02*
X187645113Y-65845925D01*
X187645113Y-65845925D02*
X187568922Y-65798306D01*
X188064161Y-66369735D02*
X188064161Y-65369735D01*
X188140351Y-65988782D02*
X188368923Y-66369735D01*
X188368923Y-65703068D02*
X188064161Y-66084020D01*
X188978446Y-65845925D02*
X189092732Y-65893544D01*
X189092732Y-65893544D02*
X189130827Y-65941163D01*
X189130827Y-65941163D02*
X189168923Y-66036401D01*
X189168923Y-66036401D02*
X189168923Y-66179258D01*
X189168923Y-66179258D02*
X189130827Y-66274496D01*
X189130827Y-66274496D02*
X189092732Y-66322116D01*
X189092732Y-66322116D02*
X189016542Y-66369735D01*
X189016542Y-66369735D02*
X188711780Y-66369735D01*
X188711780Y-66369735D02*
X188711780Y-65369735D01*
X188711780Y-65369735D02*
X188978446Y-65369735D01*
X188978446Y-65369735D02*
X189054637Y-65417354D01*
X189054637Y-65417354D02*
X189092732Y-65464973D01*
X189092732Y-65464973D02*
X189130827Y-65560211D01*
X189130827Y-65560211D02*
X189130827Y-65655449D01*
X189130827Y-65655449D02*
X189092732Y-65750687D01*
X189092732Y-65750687D02*
X189054637Y-65798306D01*
X189054637Y-65798306D02*
X188978446Y-65845925D01*
X188978446Y-65845925D02*
X188711780Y-65845925D01*
D11*
X98412856Y-75277456D02*
X98698570Y-75372694D01*
X98698570Y-75372694D02*
X99174761Y-75372694D01*
X99174761Y-75372694D02*
X99365237Y-75277456D01*
X99365237Y-75277456D02*
X99460475Y-75182217D01*
X99460475Y-75182217D02*
X99555713Y-74991741D01*
X99555713Y-74991741D02*
X99555713Y-74801265D01*
X99555713Y-74801265D02*
X99460475Y-74610789D01*
X99460475Y-74610789D02*
X99365237Y-74515551D01*
X99365237Y-74515551D02*
X99174761Y-74420313D01*
X99174761Y-74420313D02*
X98793808Y-74325075D01*
X98793808Y-74325075D02*
X98603332Y-74229836D01*
X98603332Y-74229836D02*
X98508094Y-74134598D01*
X98508094Y-74134598D02*
X98412856Y-73944122D01*
X98412856Y-73944122D02*
X98412856Y-73753646D01*
X98412856Y-73753646D02*
X98508094Y-73563170D01*
X98508094Y-73563170D02*
X98603332Y-73467932D01*
X98603332Y-73467932D02*
X98793808Y-73372694D01*
X98793808Y-73372694D02*
X99269999Y-73372694D01*
X99269999Y-73372694D02*
X99555713Y-73467932D01*
X100412856Y-75372694D02*
X100412856Y-73372694D01*
X101365237Y-75372694D02*
X101365237Y-73372694D01*
X101365237Y-73372694D02*
X102508094Y-75372694D01*
X102508094Y-75372694D02*
X102508094Y-73372694D01*
X104603332Y-75182217D02*
X104508094Y-75277456D01*
X104508094Y-75277456D02*
X104222380Y-75372694D01*
X104222380Y-75372694D02*
X104031904Y-75372694D01*
X104031904Y-75372694D02*
X103746189Y-75277456D01*
X103746189Y-75277456D02*
X103555713Y-75086979D01*
X103555713Y-75086979D02*
X103460475Y-74896503D01*
X103460475Y-74896503D02*
X103365237Y-74515551D01*
X103365237Y-74515551D02*
X103365237Y-74229836D01*
X103365237Y-74229836D02*
X103460475Y-73848884D01*
X103460475Y-73848884D02*
X103555713Y-73658408D01*
X103555713Y-73658408D02*
X103746189Y-73467932D01*
X103746189Y-73467932D02*
X104031904Y-73372694D01*
X104031904Y-73372694D02*
X104222380Y-73372694D01*
X104222380Y-73372694D02*
X104508094Y-73467932D01*
X104508094Y-73467932D02*
X104603332Y-73563170D01*
X106412856Y-75372694D02*
X105460475Y-75372694D01*
X105460475Y-75372694D02*
X105460475Y-73372694D01*
X106984285Y-74801265D02*
X107936666Y-74801265D01*
X106793809Y-75372694D02*
X107460475Y-73372694D01*
X107460475Y-73372694D02*
X108127142Y-75372694D01*
X108793809Y-75372694D02*
X108793809Y-73372694D01*
X110889047Y-75372694D02*
X110222380Y-74420313D01*
X109746190Y-75372694D02*
X109746190Y-73372694D01*
X109746190Y-73372694D02*
X110508095Y-73372694D01*
X110508095Y-73372694D02*
X110698571Y-73467932D01*
X110698571Y-73467932D02*
X110793809Y-73563170D01*
X110793809Y-73563170D02*
X110889047Y-73753646D01*
X110889047Y-73753646D02*
X110889047Y-74039360D01*
X110889047Y-74039360D02*
X110793809Y-74229836D01*
X110793809Y-74229836D02*
X110698571Y-74325075D01*
X110698571Y-74325075D02*
X110508095Y-74420313D01*
X110508095Y-74420313D02*
X109746190Y-74420313D01*
X114603333Y-75563170D02*
X114412857Y-75467932D01*
X114412857Y-75467932D02*
X114222381Y-75277456D01*
X114222381Y-75277456D02*
X113936667Y-74991741D01*
X113936667Y-74991741D02*
X113746190Y-74896503D01*
X113746190Y-74896503D02*
X113555714Y-74896503D01*
X113650952Y-75372694D02*
X113460476Y-75277456D01*
X113460476Y-75277456D02*
X113270000Y-75086979D01*
X113270000Y-75086979D02*
X113174762Y-74706027D01*
X113174762Y-74706027D02*
X113174762Y-74039360D01*
X113174762Y-74039360D02*
X113270000Y-73658408D01*
X113270000Y-73658408D02*
X113460476Y-73467932D01*
X113460476Y-73467932D02*
X113650952Y-73372694D01*
X113650952Y-73372694D02*
X114031905Y-73372694D01*
X114031905Y-73372694D02*
X114222381Y-73467932D01*
X114222381Y-73467932D02*
X114412857Y-73658408D01*
X114412857Y-73658408D02*
X114508095Y-74039360D01*
X114508095Y-74039360D02*
X114508095Y-74706027D01*
X114508095Y-74706027D02*
X114412857Y-75086979D01*
X114412857Y-75086979D02*
X114222381Y-75277456D01*
X114222381Y-75277456D02*
X114031905Y-75372694D01*
X114031905Y-75372694D02*
X113650952Y-75372694D01*
X116317619Y-75372694D02*
X115365238Y-75372694D01*
X115365238Y-75372694D02*
X115365238Y-73372694D01*
X100269999Y-76592582D02*
X99317618Y-76592582D01*
X99317618Y-76592582D02*
X99222380Y-77544963D01*
X99222380Y-77544963D02*
X99317618Y-77449724D01*
X99317618Y-77449724D02*
X99508094Y-77354486D01*
X99508094Y-77354486D02*
X99984285Y-77354486D01*
X99984285Y-77354486D02*
X100174761Y-77449724D01*
X100174761Y-77449724D02*
X100269999Y-77544963D01*
X100269999Y-77544963D02*
X100365237Y-77735439D01*
X100365237Y-77735439D02*
X100365237Y-78211629D01*
X100365237Y-78211629D02*
X100269999Y-78402105D01*
X100269999Y-78402105D02*
X100174761Y-78497344D01*
X100174761Y-78497344D02*
X99984285Y-78592582D01*
X99984285Y-78592582D02*
X99508094Y-78592582D01*
X99508094Y-78592582D02*
X99317618Y-78497344D01*
X99317618Y-78497344D02*
X99222380Y-78402105D01*
X102269999Y-78592582D02*
X101127142Y-78592582D01*
X101698570Y-78592582D02*
X101698570Y-76592582D01*
X101698570Y-76592582D02*
X101508094Y-76878296D01*
X101508094Y-76878296D02*
X101317618Y-77068772D01*
X101317618Y-77068772D02*
X101127142Y-77164010D01*
X103031904Y-76783058D02*
X103127142Y-76687820D01*
X103127142Y-76687820D02*
X103317618Y-76592582D01*
X103317618Y-76592582D02*
X103793809Y-76592582D01*
X103793809Y-76592582D02*
X103984285Y-76687820D01*
X103984285Y-76687820D02*
X104079523Y-76783058D01*
X104079523Y-76783058D02*
X104174761Y-76973534D01*
X104174761Y-76973534D02*
X104174761Y-77164010D01*
X104174761Y-77164010D02*
X104079523Y-77449724D01*
X104079523Y-77449724D02*
X102936666Y-78592582D01*
X102936666Y-78592582D02*
X104174761Y-78592582D01*
X105031904Y-78592582D02*
X105031904Y-76592582D01*
X105222380Y-77830677D02*
X105793809Y-78592582D01*
X105793809Y-77259248D02*
X105031904Y-78021153D01*
X107317619Y-77544963D02*
X107603333Y-77640201D01*
X107603333Y-77640201D02*
X107698571Y-77735439D01*
X107698571Y-77735439D02*
X107793809Y-77925915D01*
X107793809Y-77925915D02*
X107793809Y-78211629D01*
X107793809Y-78211629D02*
X107698571Y-78402105D01*
X107698571Y-78402105D02*
X107603333Y-78497344D01*
X107603333Y-78497344D02*
X107412857Y-78592582D01*
X107412857Y-78592582D02*
X106650952Y-78592582D01*
X106650952Y-78592582D02*
X106650952Y-76592582D01*
X106650952Y-76592582D02*
X107317619Y-76592582D01*
X107317619Y-76592582D02*
X107508095Y-76687820D01*
X107508095Y-76687820D02*
X107603333Y-76783058D01*
X107603333Y-76783058D02*
X107698571Y-76973534D01*
X107698571Y-76973534D02*
X107698571Y-77164010D01*
X107698571Y-77164010D02*
X107603333Y-77354486D01*
X107603333Y-77354486D02*
X107508095Y-77449724D01*
X107508095Y-77449724D02*
X107317619Y-77544963D01*
X107317619Y-77544963D02*
X106650952Y-77544963D01*
X111317619Y-78592582D02*
X110650952Y-77640201D01*
X110174762Y-78592582D02*
X110174762Y-76592582D01*
X110174762Y-76592582D02*
X110936667Y-76592582D01*
X110936667Y-76592582D02*
X111127143Y-76687820D01*
X111127143Y-76687820D02*
X111222381Y-76783058D01*
X111222381Y-76783058D02*
X111317619Y-76973534D01*
X111317619Y-76973534D02*
X111317619Y-77259248D01*
X111317619Y-77259248D02*
X111222381Y-77449724D01*
X111222381Y-77449724D02*
X111127143Y-77544963D01*
X111127143Y-77544963D02*
X110936667Y-77640201D01*
X110936667Y-77640201D02*
X110174762Y-77640201D01*
X112079524Y-78021153D02*
X113031905Y-78021153D01*
X111889048Y-78592582D02*
X112555714Y-76592582D01*
X112555714Y-76592582D02*
X113222381Y-78592582D01*
X113889048Y-78592582D02*
X113889048Y-76592582D01*
X113889048Y-76592582D02*
X114555715Y-78021153D01*
X114555715Y-78021153D02*
X115222381Y-76592582D01*
X115222381Y-76592582D02*
X115222381Y-78592582D01*
D10*
X160425712Y-64520771D02*
X160378093Y-64473152D01*
X160378093Y-64473152D02*
X160282855Y-64330295D01*
X160282855Y-64330295D02*
X160235236Y-64235057D01*
X160235236Y-64235057D02*
X160187617Y-64092200D01*
X160187617Y-64092200D02*
X160139998Y-63854104D01*
X160139998Y-63854104D02*
X160139998Y-63663628D01*
X160139998Y-63663628D02*
X160187617Y-63425533D01*
X160187617Y-63425533D02*
X160235236Y-63282676D01*
X160235236Y-63282676D02*
X160282855Y-63187438D01*
X160282855Y-63187438D02*
X160378093Y-63044580D01*
X160378093Y-63044580D02*
X160425712Y-62996961D01*
X161378093Y-64044580D02*
X161330474Y-64092200D01*
X161330474Y-64092200D02*
X161187617Y-64139819D01*
X161187617Y-64139819D02*
X161092379Y-64139819D01*
X161092379Y-64139819D02*
X160949522Y-64092200D01*
X160949522Y-64092200D02*
X160854284Y-63996961D01*
X160854284Y-63996961D02*
X160806665Y-63901723D01*
X160806665Y-63901723D02*
X160759046Y-63711247D01*
X160759046Y-63711247D02*
X160759046Y-63568390D01*
X160759046Y-63568390D02*
X160806665Y-63377914D01*
X160806665Y-63377914D02*
X160854284Y-63282676D01*
X160854284Y-63282676D02*
X160949522Y-63187438D01*
X160949522Y-63187438D02*
X161092379Y-63139819D01*
X161092379Y-63139819D02*
X161187617Y-63139819D01*
X161187617Y-63139819D02*
X161330474Y-63187438D01*
X161330474Y-63187438D02*
X161378093Y-63235057D01*
X161711427Y-64520771D02*
X161759046Y-64473152D01*
X161759046Y-64473152D02*
X161854284Y-64330295D01*
X161854284Y-64330295D02*
X161901903Y-64235057D01*
X161901903Y-64235057D02*
X161949522Y-64092200D01*
X161949522Y-64092200D02*
X161997141Y-63854104D01*
X161997141Y-63854104D02*
X161997141Y-63663628D01*
X161997141Y-63663628D02*
X161949522Y-63425533D01*
X161949522Y-63425533D02*
X161901903Y-63282676D01*
X161901903Y-63282676D02*
X161854284Y-63187438D01*
X161854284Y-63187438D02*
X161759046Y-63044580D01*
X161759046Y-63044580D02*
X161711427Y-62996961D01*
X163187618Y-63235057D02*
X163235237Y-63187438D01*
X163235237Y-63187438D02*
X163330475Y-63139819D01*
X163330475Y-63139819D02*
X163568570Y-63139819D01*
X163568570Y-63139819D02*
X163663808Y-63187438D01*
X163663808Y-63187438D02*
X163711427Y-63235057D01*
X163711427Y-63235057D02*
X163759046Y-63330295D01*
X163759046Y-63330295D02*
X163759046Y-63425533D01*
X163759046Y-63425533D02*
X163711427Y-63568390D01*
X163711427Y-63568390D02*
X163139999Y-64139819D01*
X163139999Y-64139819D02*
X163759046Y-64139819D01*
X164378094Y-63139819D02*
X164473332Y-63139819D01*
X164473332Y-63139819D02*
X164568570Y-63187438D01*
X164568570Y-63187438D02*
X164616189Y-63235057D01*
X164616189Y-63235057D02*
X164663808Y-63330295D01*
X164663808Y-63330295D02*
X164711427Y-63520771D01*
X164711427Y-63520771D02*
X164711427Y-63758866D01*
X164711427Y-63758866D02*
X164663808Y-63949342D01*
X164663808Y-63949342D02*
X164616189Y-64044580D01*
X164616189Y-64044580D02*
X164568570Y-64092200D01*
X164568570Y-64092200D02*
X164473332Y-64139819D01*
X164473332Y-64139819D02*
X164378094Y-64139819D01*
X164378094Y-64139819D02*
X164282856Y-64092200D01*
X164282856Y-64092200D02*
X164235237Y-64044580D01*
X164235237Y-64044580D02*
X164187618Y-63949342D01*
X164187618Y-63949342D02*
X164139999Y-63758866D01*
X164139999Y-63758866D02*
X164139999Y-63520771D01*
X164139999Y-63520771D02*
X164187618Y-63330295D01*
X164187618Y-63330295D02*
X164235237Y-63235057D01*
X164235237Y-63235057D02*
X164282856Y-63187438D01*
X164282856Y-63187438D02*
X164378094Y-63139819D01*
X165092380Y-63235057D02*
X165139999Y-63187438D01*
X165139999Y-63187438D02*
X165235237Y-63139819D01*
X165235237Y-63139819D02*
X165473332Y-63139819D01*
X165473332Y-63139819D02*
X165568570Y-63187438D01*
X165568570Y-63187438D02*
X165616189Y-63235057D01*
X165616189Y-63235057D02*
X165663808Y-63330295D01*
X165663808Y-63330295D02*
X165663808Y-63425533D01*
X165663808Y-63425533D02*
X165616189Y-63568390D01*
X165616189Y-63568390D02*
X165044761Y-64139819D01*
X165044761Y-64139819D02*
X165663808Y-64139819D01*
X166044761Y-63235057D02*
X166092380Y-63187438D01*
X166092380Y-63187438D02*
X166187618Y-63139819D01*
X166187618Y-63139819D02*
X166425713Y-63139819D01*
X166425713Y-63139819D02*
X166520951Y-63187438D01*
X166520951Y-63187438D02*
X166568570Y-63235057D01*
X166568570Y-63235057D02*
X166616189Y-63330295D01*
X166616189Y-63330295D02*
X166616189Y-63425533D01*
X166616189Y-63425533D02*
X166568570Y-63568390D01*
X166568570Y-63568390D02*
X165997142Y-64139819D01*
X165997142Y-64139819D02*
X166616189Y-64139819D01*
X167759047Y-63854104D02*
X168235237Y-63854104D01*
X167663809Y-64139819D02*
X167997142Y-63139819D01*
X167997142Y-63139819D02*
X168330475Y-64139819D01*
X168806666Y-64139819D02*
X168711428Y-64092200D01*
X168711428Y-64092200D02*
X168663809Y-63996961D01*
X168663809Y-63996961D02*
X168663809Y-63139819D01*
X169092381Y-63473152D02*
X169330476Y-64139819D01*
X169330476Y-64139819D02*
X169568571Y-63473152D01*
X170378095Y-64139819D02*
X170378095Y-63616009D01*
X170378095Y-63616009D02*
X170330476Y-63520771D01*
X170330476Y-63520771D02*
X170235238Y-63473152D01*
X170235238Y-63473152D02*
X170044762Y-63473152D01*
X170044762Y-63473152D02*
X169949524Y-63520771D01*
X170378095Y-64092200D02*
X170282857Y-64139819D01*
X170282857Y-64139819D02*
X170044762Y-64139819D01*
X170044762Y-64139819D02*
X169949524Y-64092200D01*
X169949524Y-64092200D02*
X169901905Y-63996961D01*
X169901905Y-63996961D02*
X169901905Y-63901723D01*
X169901905Y-63901723D02*
X169949524Y-63806485D01*
X169949524Y-63806485D02*
X170044762Y-63758866D01*
X170044762Y-63758866D02*
X170282857Y-63758866D01*
X170282857Y-63758866D02*
X170378095Y-63711247D01*
X170854286Y-64139819D02*
X170854286Y-63473152D01*
X170854286Y-63663628D02*
X170901905Y-63568390D01*
X170901905Y-63568390D02*
X170949524Y-63520771D01*
X170949524Y-63520771D02*
X171044762Y-63473152D01*
X171044762Y-63473152D02*
X171140000Y-63473152D01*
X171616191Y-64139819D02*
X171520953Y-64092200D01*
X171520953Y-64092200D02*
X171473334Y-64044580D01*
X171473334Y-64044580D02*
X171425715Y-63949342D01*
X171425715Y-63949342D02*
X171425715Y-63663628D01*
X171425715Y-63663628D02*
X171473334Y-63568390D01*
X171473334Y-63568390D02*
X171520953Y-63520771D01*
X171520953Y-63520771D02*
X171616191Y-63473152D01*
X171616191Y-63473152D02*
X171759048Y-63473152D01*
X171759048Y-63473152D02*
X171854286Y-63520771D01*
X171854286Y-63520771D02*
X171901905Y-63568390D01*
X171901905Y-63568390D02*
X171949524Y-63663628D01*
X171949524Y-63663628D02*
X171949524Y-63949342D01*
X171949524Y-63949342D02*
X171901905Y-64044580D01*
X171901905Y-64044580D02*
X171854286Y-64092200D01*
X171854286Y-64092200D02*
X171759048Y-64139819D01*
X171759048Y-64139819D02*
X171616191Y-64139819D01*
X173092382Y-63854104D02*
X173568572Y-63854104D01*
X172997144Y-64139819D02*
X173330477Y-63139819D01*
X173330477Y-63139819D02*
X173663810Y-64139819D01*
X174140001Y-64139819D02*
X174044763Y-64092200D01*
X174044763Y-64092200D02*
X173997144Y-63996961D01*
X173997144Y-63996961D02*
X173997144Y-63139819D01*
X174901906Y-64092200D02*
X174806668Y-64139819D01*
X174806668Y-64139819D02*
X174616192Y-64139819D01*
X174616192Y-64139819D02*
X174520954Y-64092200D01*
X174520954Y-64092200D02*
X174473335Y-63996961D01*
X174473335Y-63996961D02*
X174473335Y-63616009D01*
X174473335Y-63616009D02*
X174520954Y-63520771D01*
X174520954Y-63520771D02*
X174616192Y-63473152D01*
X174616192Y-63473152D02*
X174806668Y-63473152D01*
X174806668Y-63473152D02*
X174901906Y-63520771D01*
X174901906Y-63520771D02*
X174949525Y-63616009D01*
X174949525Y-63616009D02*
X174949525Y-63711247D01*
X174949525Y-63711247D02*
X174473335Y-63806485D01*
X175806668Y-64139819D02*
X175806668Y-63616009D01*
X175806668Y-63616009D02*
X175759049Y-63520771D01*
X175759049Y-63520771D02*
X175663811Y-63473152D01*
X175663811Y-63473152D02*
X175473335Y-63473152D01*
X175473335Y-63473152D02*
X175378097Y-63520771D01*
X175806668Y-64092200D02*
X175711430Y-64139819D01*
X175711430Y-64139819D02*
X175473335Y-64139819D01*
X175473335Y-64139819D02*
X175378097Y-64092200D01*
X175378097Y-64092200D02*
X175330478Y-63996961D01*
X175330478Y-63996961D02*
X175330478Y-63901723D01*
X175330478Y-63901723D02*
X175378097Y-63806485D01*
X175378097Y-63806485D02*
X175473335Y-63758866D01*
X175473335Y-63758866D02*
X175711430Y-63758866D01*
X175711430Y-63758866D02*
X175806668Y-63711247D01*
X177378097Y-63616009D02*
X177044764Y-63616009D01*
X177044764Y-64139819D02*
X177044764Y-63139819D01*
X177044764Y-63139819D02*
X177520954Y-63139819D01*
X178330478Y-64139819D02*
X178330478Y-63139819D01*
X178330478Y-64092200D02*
X178235240Y-64139819D01*
X178235240Y-64139819D02*
X178044764Y-64139819D01*
X178044764Y-64139819D02*
X177949526Y-64092200D01*
X177949526Y-64092200D02*
X177901907Y-64044580D01*
X177901907Y-64044580D02*
X177854288Y-63949342D01*
X177854288Y-63949342D02*
X177854288Y-63663628D01*
X177854288Y-63663628D02*
X177901907Y-63568390D01*
X177901907Y-63568390D02*
X177949526Y-63520771D01*
X177949526Y-63520771D02*
X178044764Y-63473152D01*
X178044764Y-63473152D02*
X178235240Y-63473152D01*
X178235240Y-63473152D02*
X178330478Y-63520771D01*
X178711431Y-63473152D02*
X179235240Y-63473152D01*
X179235240Y-63473152D02*
X178711431Y-64139819D01*
X178711431Y-64139819D02*
X179235240Y-64139819D01*
X183699819Y-81478333D02*
X184414104Y-81478333D01*
X184414104Y-81478333D02*
X184556961Y-81525952D01*
X184556961Y-81525952D02*
X184652200Y-81621190D01*
X184652200Y-81621190D02*
X184699819Y-81764047D01*
X184699819Y-81764047D02*
X184699819Y-81859285D01*
X184699819Y-81002142D02*
X183699819Y-81002142D01*
X183699819Y-81002142D02*
X183699819Y-80621190D01*
X183699819Y-80621190D02*
X183747438Y-80525952D01*
X183747438Y-80525952D02*
X183795057Y-80478333D01*
X183795057Y-80478333D02*
X183890295Y-80430714D01*
X183890295Y-80430714D02*
X184033152Y-80430714D01*
X184033152Y-80430714D02*
X184128390Y-80478333D01*
X184128390Y-80478333D02*
X184176009Y-80525952D01*
X184176009Y-80525952D02*
X184223628Y-80621190D01*
X184223628Y-80621190D02*
X184223628Y-81002142D01*
X184699819Y-79478333D02*
X184699819Y-80049761D01*
X184699819Y-79764047D02*
X183699819Y-79764047D01*
X183699819Y-79764047D02*
X183842676Y-79859285D01*
X183842676Y-79859285D02*
X183937914Y-79954523D01*
X183937914Y-79954523D02*
X183985533Y-80049761D01*
X107824819Y-69346904D02*
X108634342Y-69346904D01*
X108634342Y-69346904D02*
X108729580Y-69299285D01*
X108729580Y-69299285D02*
X108777200Y-69251666D01*
X108777200Y-69251666D02*
X108824819Y-69156428D01*
X108824819Y-69156428D02*
X108824819Y-68965952D01*
X108824819Y-68965952D02*
X108777200Y-68870714D01*
X108777200Y-68870714D02*
X108729580Y-68823095D01*
X108729580Y-68823095D02*
X108634342Y-68775476D01*
X108634342Y-68775476D02*
X107824819Y-68775476D01*
X107824819Y-68394523D02*
X107824819Y-67775476D01*
X107824819Y-67775476D02*
X108205771Y-68108809D01*
X108205771Y-68108809D02*
X108205771Y-67965952D01*
X108205771Y-67965952D02*
X108253390Y-67870714D01*
X108253390Y-67870714D02*
X108301009Y-67823095D01*
X108301009Y-67823095D02*
X108396247Y-67775476D01*
X108396247Y-67775476D02*
X108634342Y-67775476D01*
X108634342Y-67775476D02*
X108729580Y-67823095D01*
X108729580Y-67823095D02*
X108777200Y-67870714D01*
X108777200Y-67870714D02*
X108824819Y-67965952D01*
X108824819Y-67965952D02*
X108824819Y-68251666D01*
X108824819Y-68251666D02*
X108777200Y-68346904D01*
X108777200Y-68346904D02*
X108729580Y-68394523D01*
X101229580Y-68551666D02*
X101277200Y-68599285D01*
X101277200Y-68599285D02*
X101324819Y-68742142D01*
X101324819Y-68742142D02*
X101324819Y-68837380D01*
X101324819Y-68837380D02*
X101277200Y-68980237D01*
X101277200Y-68980237D02*
X101181961Y-69075475D01*
X101181961Y-69075475D02*
X101086723Y-69123094D01*
X101086723Y-69123094D02*
X100896247Y-69170713D01*
X100896247Y-69170713D02*
X100753390Y-69170713D01*
X100753390Y-69170713D02*
X100562914Y-69123094D01*
X100562914Y-69123094D02*
X100467676Y-69075475D01*
X100467676Y-69075475D02*
X100372438Y-68980237D01*
X100372438Y-68980237D02*
X100324819Y-68837380D01*
X100324819Y-68837380D02*
X100324819Y-68742142D01*
X100324819Y-68742142D02*
X100372438Y-68599285D01*
X100372438Y-68599285D02*
X100420057Y-68551666D01*
X101324819Y-67599285D02*
X101324819Y-68170713D01*
X101324819Y-67884999D02*
X100324819Y-67884999D01*
X100324819Y-67884999D02*
X100467676Y-67980237D01*
X100467676Y-67980237D02*
X100562914Y-68075475D01*
X100562914Y-68075475D02*
X100610533Y-68170713D01*
X155129580Y-68451666D02*
X155177200Y-68499285D01*
X155177200Y-68499285D02*
X155224819Y-68642142D01*
X155224819Y-68642142D02*
X155224819Y-68737380D01*
X155224819Y-68737380D02*
X155177200Y-68880237D01*
X155177200Y-68880237D02*
X155081961Y-68975475D01*
X155081961Y-68975475D02*
X154986723Y-69023094D01*
X154986723Y-69023094D02*
X154796247Y-69070713D01*
X154796247Y-69070713D02*
X154653390Y-69070713D01*
X154653390Y-69070713D02*
X154462914Y-69023094D01*
X154462914Y-69023094D02*
X154367676Y-68975475D01*
X154367676Y-68975475D02*
X154272438Y-68880237D01*
X154272438Y-68880237D02*
X154224819Y-68737380D01*
X154224819Y-68737380D02*
X154224819Y-68642142D01*
X154224819Y-68642142D02*
X154272438Y-68499285D01*
X154272438Y-68499285D02*
X154320057Y-68451666D01*
X154558152Y-67594523D02*
X155224819Y-67594523D01*
X154177200Y-67832618D02*
X154891485Y-68070713D01*
X154891485Y-68070713D02*
X154891485Y-67451666D01*
X120929580Y-68751666D02*
X120977200Y-68799285D01*
X120977200Y-68799285D02*
X121024819Y-68942142D01*
X121024819Y-68942142D02*
X121024819Y-69037380D01*
X121024819Y-69037380D02*
X120977200Y-69180237D01*
X120977200Y-69180237D02*
X120881961Y-69275475D01*
X120881961Y-69275475D02*
X120786723Y-69323094D01*
X120786723Y-69323094D02*
X120596247Y-69370713D01*
X120596247Y-69370713D02*
X120453390Y-69370713D01*
X120453390Y-69370713D02*
X120262914Y-69323094D01*
X120262914Y-69323094D02*
X120167676Y-69275475D01*
X120167676Y-69275475D02*
X120072438Y-69180237D01*
X120072438Y-69180237D02*
X120024819Y-69037380D01*
X120024819Y-69037380D02*
X120024819Y-68942142D01*
X120024819Y-68942142D02*
X120072438Y-68799285D01*
X120072438Y-68799285D02*
X120120057Y-68751666D01*
X120120057Y-68370713D02*
X120072438Y-68323094D01*
X120072438Y-68323094D02*
X120024819Y-68227856D01*
X120024819Y-68227856D02*
X120024819Y-67989761D01*
X120024819Y-67989761D02*
X120072438Y-67894523D01*
X120072438Y-67894523D02*
X120120057Y-67846904D01*
X120120057Y-67846904D02*
X120215295Y-67799285D01*
X120215295Y-67799285D02*
X120310533Y-67799285D01*
X120310533Y-67799285D02*
X120453390Y-67846904D01*
X120453390Y-67846904D02*
X121024819Y-68418332D01*
X121024819Y-68418332D02*
X121024819Y-67799285D01*
X125029580Y-65651666D02*
X125077200Y-65699285D01*
X125077200Y-65699285D02*
X125124819Y-65842142D01*
X125124819Y-65842142D02*
X125124819Y-65937380D01*
X125124819Y-65937380D02*
X125077200Y-66080237D01*
X125077200Y-66080237D02*
X124981961Y-66175475D01*
X124981961Y-66175475D02*
X124886723Y-66223094D01*
X124886723Y-66223094D02*
X124696247Y-66270713D01*
X124696247Y-66270713D02*
X124553390Y-66270713D01*
X124553390Y-66270713D02*
X124362914Y-66223094D01*
X124362914Y-66223094D02*
X124267676Y-66175475D01*
X124267676Y-66175475D02*
X124172438Y-66080237D01*
X124172438Y-66080237D02*
X124124819Y-65937380D01*
X124124819Y-65937380D02*
X124124819Y-65842142D01*
X124124819Y-65842142D02*
X124172438Y-65699285D01*
X124172438Y-65699285D02*
X124220057Y-65651666D01*
X124124819Y-65318332D02*
X124124819Y-64699285D01*
X124124819Y-64699285D02*
X124505771Y-65032618D01*
X124505771Y-65032618D02*
X124505771Y-64889761D01*
X124505771Y-64889761D02*
X124553390Y-64794523D01*
X124553390Y-64794523D02*
X124601009Y-64746904D01*
X124601009Y-64746904D02*
X124696247Y-64699285D01*
X124696247Y-64699285D02*
X124934342Y-64699285D01*
X124934342Y-64699285D02*
X125029580Y-64746904D01*
X125029580Y-64746904D02*
X125077200Y-64794523D01*
X125077200Y-64794523D02*
X125124819Y-64889761D01*
X125124819Y-64889761D02*
X125124819Y-65175475D01*
X125124819Y-65175475D02*
X125077200Y-65270713D01*
X125077200Y-65270713D02*
X125029580Y-65318332D01*
X187924819Y-72851666D02*
X187448628Y-73184999D01*
X187924819Y-73423094D02*
X186924819Y-73423094D01*
X186924819Y-73423094D02*
X186924819Y-73042142D01*
X186924819Y-73042142D02*
X186972438Y-72946904D01*
X186972438Y-72946904D02*
X187020057Y-72899285D01*
X187020057Y-72899285D02*
X187115295Y-72851666D01*
X187115295Y-72851666D02*
X187258152Y-72851666D01*
X187258152Y-72851666D02*
X187353390Y-72899285D01*
X187353390Y-72899285D02*
X187401009Y-72946904D01*
X187401009Y-72946904D02*
X187448628Y-73042142D01*
X187448628Y-73042142D02*
X187448628Y-73423094D01*
X187020057Y-72470713D02*
X186972438Y-72423094D01*
X186972438Y-72423094D02*
X186924819Y-72327856D01*
X186924819Y-72327856D02*
X186924819Y-72089761D01*
X186924819Y-72089761D02*
X186972438Y-71994523D01*
X186972438Y-71994523D02*
X187020057Y-71946904D01*
X187020057Y-71946904D02*
X187115295Y-71899285D01*
X187115295Y-71899285D02*
X187210533Y-71899285D01*
X187210533Y-71899285D02*
X187353390Y-71946904D01*
X187353390Y-71946904D02*
X187924819Y-72518332D01*
X187924819Y-72518332D02*
X187924819Y-71899285D01*
X186874819Y-81478333D02*
X187589104Y-81478333D01*
X187589104Y-81478333D02*
X187731961Y-81525952D01*
X187731961Y-81525952D02*
X187827200Y-81621190D01*
X187827200Y-81621190D02*
X187874819Y-81764047D01*
X187874819Y-81764047D02*
X187874819Y-81859285D01*
X187874819Y-81002142D02*
X186874819Y-81002142D01*
X186874819Y-81002142D02*
X186874819Y-80621190D01*
X186874819Y-80621190D02*
X186922438Y-80525952D01*
X186922438Y-80525952D02*
X186970057Y-80478333D01*
X186970057Y-80478333D02*
X187065295Y-80430714D01*
X187065295Y-80430714D02*
X187208152Y-80430714D01*
X187208152Y-80430714D02*
X187303390Y-80478333D01*
X187303390Y-80478333D02*
X187351009Y-80525952D01*
X187351009Y-80525952D02*
X187398628Y-80621190D01*
X187398628Y-80621190D02*
X187398628Y-81002142D01*
X186970057Y-80049761D02*
X186922438Y-80002142D01*
X186922438Y-80002142D02*
X186874819Y-79906904D01*
X186874819Y-79906904D02*
X186874819Y-79668809D01*
X186874819Y-79668809D02*
X186922438Y-79573571D01*
X186922438Y-79573571D02*
X186970057Y-79525952D01*
X186970057Y-79525952D02*
X187065295Y-79478333D01*
X187065295Y-79478333D02*
X187160533Y-79478333D01*
X187160533Y-79478333D02*
X187303390Y-79525952D01*
X187303390Y-79525952D02*
X187874819Y-80097380D01*
X187874819Y-80097380D02*
X187874819Y-79478333D01*
X169408095Y-69939819D02*
X169408095Y-70749342D01*
X169408095Y-70749342D02*
X169455714Y-70844580D01*
X169455714Y-70844580D02*
X169503333Y-70892200D01*
X169503333Y-70892200D02*
X169598571Y-70939819D01*
X169598571Y-70939819D02*
X169789047Y-70939819D01*
X169789047Y-70939819D02*
X169884285Y-70892200D01*
X169884285Y-70892200D02*
X169931904Y-70844580D01*
X169931904Y-70844580D02*
X169979523Y-70749342D01*
X169979523Y-70749342D02*
X169979523Y-69939819D01*
X170408095Y-70035057D02*
X170455714Y-69987438D01*
X170455714Y-69987438D02*
X170550952Y-69939819D01*
X170550952Y-69939819D02*
X170789047Y-69939819D01*
X170789047Y-69939819D02*
X170884285Y-69987438D01*
X170884285Y-69987438D02*
X170931904Y-70035057D01*
X170931904Y-70035057D02*
X170979523Y-70130295D01*
X170979523Y-70130295D02*
X170979523Y-70225533D01*
X170979523Y-70225533D02*
X170931904Y-70368390D01*
X170931904Y-70368390D02*
X170360476Y-70939819D01*
X170360476Y-70939819D02*
X170979523Y-70939819D01*
X184724819Y-72751666D02*
X184248628Y-73084999D01*
X184724819Y-73323094D02*
X183724819Y-73323094D01*
X183724819Y-73323094D02*
X183724819Y-72942142D01*
X183724819Y-72942142D02*
X183772438Y-72846904D01*
X183772438Y-72846904D02*
X183820057Y-72799285D01*
X183820057Y-72799285D02*
X183915295Y-72751666D01*
X183915295Y-72751666D02*
X184058152Y-72751666D01*
X184058152Y-72751666D02*
X184153390Y-72799285D01*
X184153390Y-72799285D02*
X184201009Y-72846904D01*
X184201009Y-72846904D02*
X184248628Y-72942142D01*
X184248628Y-72942142D02*
X184248628Y-73323094D01*
X184724819Y-71799285D02*
X184724819Y-72370713D01*
X184724819Y-72084999D02*
X183724819Y-72084999D01*
X183724819Y-72084999D02*
X183867676Y-72180237D01*
X183867676Y-72180237D02*
X183962914Y-72275475D01*
X183962914Y-72275475D02*
X184010533Y-72370713D01*
X137208095Y-70339819D02*
X137208095Y-71149342D01*
X137208095Y-71149342D02*
X137255714Y-71244580D01*
X137255714Y-71244580D02*
X137303333Y-71292200D01*
X137303333Y-71292200D02*
X137398571Y-71339819D01*
X137398571Y-71339819D02*
X137589047Y-71339819D01*
X137589047Y-71339819D02*
X137684285Y-71292200D01*
X137684285Y-71292200D02*
X137731904Y-71244580D01*
X137731904Y-71244580D02*
X137779523Y-71149342D01*
X137779523Y-71149342D02*
X137779523Y-70339819D01*
X138779523Y-71339819D02*
X138208095Y-71339819D01*
X138493809Y-71339819D02*
X138493809Y-70339819D01*
X138493809Y-70339819D02*
X138398571Y-70482676D01*
X138398571Y-70482676D02*
X138303333Y-70577914D01*
X138303333Y-70577914D02*
X138208095Y-70625533D01*
D12*
%TO.C,JP1*%
X183245000Y-76055000D02*
X185245000Y-76055000D01*
X183245000Y-78855000D02*
X183245000Y-76055000D01*
X185245000Y-76055000D02*
X185245000Y-78855000D01*
X185245000Y-78855000D02*
X183245000Y-78855000D01*
%TO.C,U3*%
X104580000Y-65170000D02*
X110590000Y-65170000D01*
X106830000Y-71990000D02*
X110590000Y-71990000D01*
X110590000Y-65170000D02*
X110590000Y-66430000D01*
X110590000Y-71990000D02*
X110590000Y-70730000D01*
%TO.C,C1*%
X95110000Y-65599437D02*
X95110000Y-71355000D01*
X95110000Y-71355000D02*
X97460000Y-71355000D01*
X96174437Y-64535000D02*
X95110000Y-65599437D01*
X96174437Y-64535000D02*
X97460000Y-64535000D01*
X100367500Y-63507500D02*
X100367500Y-64295000D01*
X100761250Y-63901250D02*
X99973750Y-63901250D01*
X100865563Y-64535000D02*
X99580000Y-64535000D01*
X100865563Y-64535000D02*
X101930000Y-65599437D01*
X101930000Y-65599437D02*
X101930000Y-71355000D01*
X101930000Y-71355000D02*
X99580000Y-71355000D01*
%TO.C,C4*%
X153744000Y-67576248D02*
X153744000Y-68998752D01*
X155564000Y-67576248D02*
X155564000Y-68998752D01*
%TO.C,C2*%
X114795000Y-66234437D02*
X114795000Y-71990000D01*
X114795000Y-71990000D02*
X117145000Y-71990000D01*
X115859437Y-65170000D02*
X114795000Y-66234437D01*
X115859437Y-65170000D02*
X117145000Y-65170000D01*
X120052500Y-64142500D02*
X120052500Y-64930000D01*
X120446250Y-64536250D02*
X119658750Y-64536250D01*
X120550563Y-65170000D02*
X119265000Y-65170000D01*
X120550563Y-65170000D02*
X121615000Y-66234437D01*
X121615000Y-66234437D02*
X121615000Y-71990000D01*
X121615000Y-71990000D02*
X119265000Y-71990000D01*
%TO.C,C3*%
X123645000Y-64693748D02*
X123645000Y-66116252D01*
X125465000Y-64693748D02*
X125465000Y-66116252D01*
%TO.C,J1*%
X94490000Y-52485000D02*
X94490000Y-58045000D01*
X94490000Y-58045000D02*
X100010000Y-58045000D01*
X100009000Y-57045000D02*
X101285000Y-57045000D01*
X100010000Y-58045000D02*
X100010000Y-57045000D01*
X103475000Y-57045000D02*
X104051000Y-57045000D01*
X105790000Y-57045000D02*
X106591000Y-57045000D01*
X108330000Y-57045000D02*
X109131000Y-57045000D01*
X110870000Y-57045000D02*
X111671000Y-57045000D01*
X114210000Y-57045000D02*
X113409000Y-57045000D01*
X116750000Y-57045000D02*
X115949000Y-57045000D01*
X119290000Y-57045000D02*
X118489000Y-57045000D01*
X121830000Y-57045000D02*
X121029000Y-57045000D01*
X124370000Y-57045000D02*
X123569000Y-57045000D01*
X126910000Y-57045000D02*
X126109000Y-57045000D01*
X129450000Y-57045000D02*
X128649000Y-57045000D01*
X131990000Y-57045000D02*
X131189000Y-57045000D01*
X134530000Y-57045000D02*
X133729000Y-57045000D01*
X137070000Y-57045000D02*
X136269000Y-57045000D01*
X139610000Y-57045000D02*
X138809000Y-57045000D01*
X142150000Y-57045000D02*
X141349000Y-57045000D01*
X144690000Y-57045000D02*
X143889000Y-57045000D01*
X147230000Y-57045000D02*
X146429000Y-57045000D01*
X149770000Y-57045000D02*
X148969000Y-57045000D01*
X152310000Y-57045000D02*
X151509000Y-57045000D01*
X154850000Y-57045000D02*
X154049000Y-57045000D01*
X157390000Y-57045000D02*
X156589000Y-57045000D01*
X159930000Y-57045000D02*
X159129000Y-57045000D01*
X162470000Y-57045000D02*
X161669000Y-57045000D01*
X165010000Y-57045000D02*
X164209000Y-57045000D01*
X167550000Y-57045000D02*
X166749000Y-57045000D01*
X170090000Y-57045000D02*
X169289000Y-57045000D01*
X171830000Y-57045000D02*
X172631000Y-57045000D01*
X174370000Y-57045000D02*
X175171000Y-57045000D01*
X176910000Y-57045000D02*
X177711000Y-57045000D01*
X179450000Y-57045000D02*
X180251000Y-57045000D01*
X181990000Y-57045000D02*
X183490000Y-57045000D01*
X182390000Y-57785000D02*
X182990000Y-57485000D01*
X182990000Y-57485000D02*
X182990000Y-58085000D01*
X182990000Y-58085000D02*
X182390000Y-57785000D01*
X183490000Y-58045000D02*
X183490000Y-57045000D01*
X189010000Y-52485000D02*
X189010000Y-58045000D01*
X189010000Y-58045000D02*
X183490000Y-58045000D01*
%TO.C,R2*%
X186510000Y-71942936D02*
X186510000Y-73397064D01*
X188330000Y-71942936D02*
X188330000Y-73397064D01*
%TO.C,J2*%
X94440000Y-82925000D02*
X99960000Y-82925000D01*
X94440000Y-88485000D02*
X94440000Y-82925000D01*
X99960000Y-82925000D02*
X99960000Y-83925000D01*
X101460000Y-83925000D02*
X99960000Y-83925000D01*
X103415000Y-83925000D02*
X103991000Y-83925000D01*
X105730000Y-83925000D02*
X106531000Y-83925000D01*
X108270000Y-83925000D02*
X109071000Y-83925000D01*
X110810000Y-83925000D02*
X111611000Y-83925000D01*
X113350000Y-83925000D02*
X114151000Y-83925000D01*
X115890000Y-83925000D02*
X116691000Y-83925000D01*
X118430000Y-83925000D02*
X119231000Y-83925000D01*
X120970000Y-83925000D02*
X121771000Y-83925000D01*
X123510000Y-83925000D02*
X124311000Y-83925000D01*
X126050000Y-83925000D02*
X126851000Y-83925000D01*
X128590000Y-83925000D02*
X129391000Y-83925000D01*
X131130000Y-83925000D02*
X131931000Y-83925000D01*
X133670000Y-83925000D02*
X134471000Y-83925000D01*
X136210000Y-83925000D02*
X137011000Y-83925000D01*
X138750000Y-83925000D02*
X139551000Y-83925000D01*
X141290000Y-83925000D02*
X142091000Y-83925000D01*
X143830000Y-83925000D02*
X144631000Y-83925000D01*
X146370000Y-83925000D02*
X147171000Y-83925000D01*
X148910000Y-83925000D02*
X149711000Y-83925000D01*
X151450000Y-83925000D02*
X152251000Y-83925000D01*
X153990000Y-83925000D02*
X154791000Y-83925000D01*
X156530000Y-83925000D02*
X157331000Y-83925000D01*
X159070000Y-83925000D02*
X159871000Y-83925000D01*
X161610000Y-83925000D02*
X162411000Y-83925000D01*
X164150000Y-83925000D02*
X164951000Y-83925000D01*
X166690000Y-83925000D02*
X167491000Y-83925000D01*
X169230000Y-83925000D02*
X170031000Y-83925000D01*
X171770000Y-83925000D02*
X172571000Y-83925000D01*
X174310000Y-83925000D02*
X175111000Y-83925000D01*
X176850000Y-83925000D02*
X177651000Y-83925000D01*
X179390000Y-83925000D02*
X180191000Y-83925000D01*
X182165000Y-83185000D02*
X182765000Y-83485000D01*
X182765000Y-82885000D02*
X182165000Y-83185000D01*
X182765000Y-83485000D02*
X182765000Y-82885000D01*
X183440000Y-82925000D02*
X183440000Y-83925000D01*
X183441000Y-83925000D02*
X182165000Y-83925000D01*
X188960000Y-82925000D02*
X183440000Y-82925000D01*
X188960000Y-88485000D02*
X188960000Y-82925000D01*
D13*
%TO.C,kibuzzard-660FAAE3*%
G36*
X164006186Y-77885246D02*
G01*
X163806185Y-77885246D01*
X163806185Y-77185120D01*
X164006186Y-77185120D01*
X164006186Y-77885246D01*
G37*
G36*
X166406444Y-77484999D02*
G01*
X166206443Y-77484999D01*
X166206443Y-77185120D01*
X166406444Y-77185120D01*
X166406444Y-77484999D01*
G37*
G36*
X167106570Y-77585122D02*
G01*
X166906569Y-77585122D01*
X166906569Y-77385121D01*
X167106570Y-77385121D01*
X167106570Y-77585122D01*
G37*
G36*
X169806708Y-77885246D02*
G01*
X169606707Y-77885246D01*
X169606707Y-77385121D01*
X169806708Y-77385121D01*
X169806708Y-77885246D01*
G37*
G36*
X171506840Y-77484999D02*
G01*
X171306839Y-77484999D01*
X171306839Y-77185120D01*
X171506840Y-77185120D01*
X171506840Y-77484999D01*
G37*
G36*
X171506840Y-77885246D02*
G01*
X171306839Y-77885246D01*
X171306839Y-77585122D01*
X171506840Y-77585122D01*
X171506840Y-77885246D01*
G37*
G36*
X173206972Y-77585122D02*
G01*
X173006971Y-77585122D01*
X173006971Y-77284998D01*
X173206972Y-77284998D01*
X173206972Y-77585122D01*
G37*
G36*
X174907105Y-77585122D02*
G01*
X174707103Y-77585122D01*
X174707103Y-77385121D01*
X174907105Y-77385121D01*
X174907105Y-77585122D01*
G37*
G36*
X178652209Y-77585000D02*
G01*
X178041026Y-78501774D01*
X177207484Y-78501774D01*
X177007483Y-78501774D01*
X176607481Y-78501774D01*
X176007233Y-78501774D01*
X175307107Y-78501774D01*
X174606981Y-78501774D01*
X174207223Y-78501774D01*
X173907099Y-78501774D01*
X173507096Y-78501774D01*
X172806970Y-78501774D01*
X171906843Y-78501774D01*
X171106838Y-78501774D01*
X170106832Y-78501774D01*
X169506584Y-78501774D01*
X169106826Y-78501774D01*
X169106826Y-77985124D01*
X169306828Y-77985124D01*
X169306828Y-77885246D01*
X169406706Y-77885246D01*
X169506584Y-77885246D01*
X169506584Y-77985124D01*
X169906831Y-77985124D01*
X169906831Y-77885246D01*
X170006710Y-77885246D01*
X170006710Y-77385121D01*
X169906831Y-77385121D01*
X169906831Y-77284998D01*
X170106832Y-77284998D01*
X170106832Y-77985124D01*
X170306833Y-77985124D01*
X170306833Y-77385121D01*
X170506835Y-77385121D01*
X170506835Y-77985124D01*
X170706836Y-77985124D01*
X170706836Y-77385121D01*
X170606957Y-77385121D01*
X170606957Y-77284998D01*
X170106832Y-77284998D01*
X169906831Y-77284998D01*
X169506584Y-77284998D01*
X169506584Y-77385121D01*
X169406706Y-77385121D01*
X169406706Y-77885246D01*
X169306828Y-77885246D01*
X169306828Y-77284998D01*
X169106826Y-77284998D01*
X169106826Y-77185120D01*
X169306828Y-77185120D01*
X169306828Y-77084997D01*
X171106838Y-77084997D01*
X171106838Y-77985124D01*
X171606963Y-77985124D01*
X171606963Y-77885246D01*
X171706842Y-77885246D01*
X171706842Y-77585122D01*
X171606963Y-77585122D01*
X171606963Y-77484999D01*
X171706842Y-77484999D01*
X171706842Y-77284998D01*
X171806964Y-77284998D01*
X171806964Y-77785123D01*
X171906843Y-77785123D01*
X171906843Y-77885246D01*
X172206967Y-77885246D01*
X172206967Y-77985124D01*
X171906843Y-77985124D01*
X171906843Y-78085003D01*
X172307089Y-78085003D01*
X172307089Y-77985124D01*
X172406968Y-77985124D01*
X172806970Y-77985124D01*
X173006971Y-77985124D01*
X173006971Y-77685245D01*
X173206972Y-77685245D01*
X173206972Y-77985124D01*
X173406974Y-77985124D01*
X173406974Y-77284998D01*
X173507096Y-77284998D01*
X173507096Y-77985124D01*
X173707098Y-77985124D01*
X173707098Y-77385121D01*
X173907099Y-77385121D01*
X173907099Y-77585122D01*
X174107100Y-77585122D01*
X174107100Y-77385121D01*
X174007221Y-77385121D01*
X174007221Y-77284998D01*
X173707098Y-77284998D01*
X173707098Y-77385121D01*
X173606975Y-77385121D01*
X173606975Y-77284998D01*
X173507096Y-77284998D01*
X173406974Y-77284998D01*
X173307095Y-77284998D01*
X173307095Y-77185120D01*
X173206972Y-77185120D01*
X173206972Y-77084997D01*
X174207223Y-77084997D01*
X174207223Y-77985124D01*
X174407224Y-77985124D01*
X174407224Y-77885246D01*
X174507102Y-77885246D01*
X174606981Y-77885246D01*
X174606981Y-77985124D01*
X175007227Y-77985124D01*
X175007227Y-77885246D01*
X175107106Y-77885246D01*
X175107106Y-77785123D01*
X174907105Y-77785123D01*
X174907105Y-77885246D01*
X174707103Y-77885246D01*
X174707103Y-77685245D01*
X175107106Y-77685245D01*
X175107106Y-77385121D01*
X175007227Y-77385121D01*
X175007227Y-77284998D01*
X175207228Y-77284998D01*
X175207228Y-77785123D01*
X175307107Y-77785123D01*
X175307107Y-77885246D01*
X175607231Y-77885246D01*
X175607231Y-77985124D01*
X175307107Y-77985124D01*
X175307107Y-78085003D01*
X175707353Y-78085003D01*
X175707353Y-77985124D01*
X175807232Y-77985124D01*
X175807232Y-77885246D01*
X175907355Y-77885246D01*
X176007233Y-77885246D01*
X176007233Y-77985124D01*
X176407480Y-77985124D01*
X176407480Y-77885246D01*
X176507358Y-77885246D01*
X176507358Y-77284998D01*
X176607481Y-77284998D01*
X176607481Y-77985124D01*
X176807482Y-77985124D01*
X176807482Y-77385121D01*
X177007483Y-77385121D01*
X177007483Y-77585122D01*
X177207484Y-77585122D01*
X177207484Y-77385121D01*
X177107606Y-77385121D01*
X177107606Y-77284998D01*
X176807482Y-77284998D01*
X176807482Y-77385121D01*
X176707359Y-77385121D01*
X176707359Y-77284998D01*
X176607481Y-77284998D01*
X176507358Y-77284998D01*
X176507358Y-77084997D01*
X176307357Y-77084997D01*
X176307357Y-77885246D01*
X176107356Y-77885246D01*
X176107356Y-77685245D01*
X175907355Y-77685245D01*
X175907355Y-77885246D01*
X175807232Y-77885246D01*
X175807232Y-77284998D01*
X175607231Y-77284998D01*
X175607231Y-77785123D01*
X175407230Y-77785123D01*
X175407230Y-77284998D01*
X175207228Y-77284998D01*
X175007227Y-77284998D01*
X174606981Y-77284998D01*
X174606981Y-77385121D01*
X174507102Y-77385121D01*
X174507102Y-77885246D01*
X174407224Y-77885246D01*
X174407224Y-77084997D01*
X174207223Y-77084997D01*
X173206972Y-77084997D01*
X173006971Y-77084997D01*
X173006971Y-77185120D01*
X172906849Y-77185120D01*
X172906849Y-77284998D01*
X172806970Y-77284998D01*
X172806970Y-77985124D01*
X172406968Y-77985124D01*
X172406968Y-77284998D01*
X172206967Y-77284998D01*
X172206967Y-77785123D01*
X172006965Y-77785123D01*
X172006965Y-77284998D01*
X171806964Y-77284998D01*
X171706842Y-77284998D01*
X171706842Y-77185120D01*
X171606963Y-77185120D01*
X171606963Y-77084997D01*
X171106838Y-77084997D01*
X169306828Y-77084997D01*
X169106826Y-77084997D01*
X169106826Y-77185120D01*
X169106826Y-77284998D01*
X169106826Y-77985124D01*
X169106826Y-78501774D01*
X168506579Y-78501774D01*
X168106820Y-78501774D01*
X168106820Y-77985124D01*
X168306822Y-77985124D01*
X168306822Y-77885246D01*
X168406700Y-77885246D01*
X168506579Y-77885246D01*
X168506579Y-77985124D01*
X168906825Y-77985124D01*
X168906825Y-77885246D01*
X169006704Y-77885246D01*
X169006704Y-77685245D01*
X168906825Y-77685245D01*
X168906825Y-77585122D01*
X168606701Y-77585122D01*
X168606701Y-77385121D01*
X168806702Y-77385121D01*
X168806702Y-77484999D01*
X169006704Y-77484999D01*
X169006704Y-77385121D01*
X168906825Y-77385121D01*
X168906825Y-77284998D01*
X168506579Y-77284998D01*
X168506579Y-77385121D01*
X168406700Y-77385121D01*
X168406700Y-77585122D01*
X168506579Y-77585122D01*
X168506579Y-77685245D01*
X168806702Y-77685245D01*
X168806702Y-77885246D01*
X168606701Y-77885246D01*
X168606701Y-77785123D01*
X168406700Y-77785123D01*
X168406700Y-77885246D01*
X168306822Y-77885246D01*
X168306822Y-77284998D01*
X168106820Y-77284998D01*
X168106820Y-77185120D01*
X168306822Y-77185120D01*
X168306822Y-77084997D01*
X168106820Y-77084997D01*
X168106820Y-77185120D01*
X168106820Y-77284998D01*
X168106820Y-77985124D01*
X168106820Y-78501774D01*
X167806697Y-78501774D01*
X167606695Y-78501774D01*
X166806447Y-78501774D01*
X166006442Y-78501774D01*
X165406438Y-78501774D01*
X164306310Y-78501774D01*
X163706062Y-78501774D01*
X162906057Y-78501774D01*
X161238974Y-78501774D01*
X160894540Y-77985124D01*
X162906057Y-77985124D01*
X163506061Y-77985124D01*
X163506061Y-77885246D01*
X163606184Y-77885246D01*
X163706062Y-77885246D01*
X163706062Y-77985124D01*
X164106309Y-77985124D01*
X164306310Y-77985124D01*
X164906313Y-77985124D01*
X164906313Y-77785123D01*
X164706312Y-77785123D01*
X164706312Y-77885246D01*
X164506311Y-77885246D01*
X164506311Y-77585122D01*
X164806435Y-77585122D01*
X164806435Y-77484999D01*
X164906313Y-77484999D01*
X164906313Y-77185120D01*
X164806435Y-77185120D01*
X164806435Y-77084997D01*
X165006436Y-77084997D01*
X165006436Y-77785123D01*
X165406438Y-77785123D01*
X165406438Y-77985124D01*
X165606440Y-77985124D01*
X165606440Y-77084997D01*
X166006442Y-77084997D01*
X166006442Y-77985124D01*
X166206443Y-77985124D01*
X166206443Y-77585122D01*
X166406444Y-77585122D01*
X166406444Y-77985124D01*
X166606445Y-77985124D01*
X166606445Y-77885246D01*
X166706568Y-77885246D01*
X166806447Y-77885246D01*
X166806447Y-77985124D01*
X167206693Y-77985124D01*
X167206693Y-77885246D01*
X167306572Y-77885246D01*
X167306572Y-77785123D01*
X167106570Y-77785123D01*
X167106570Y-77885246D01*
X166906569Y-77885246D01*
X166906569Y-77685245D01*
X167306572Y-77685245D01*
X167306572Y-77385121D01*
X167206693Y-77385121D01*
X167206693Y-77284998D01*
X167406694Y-77284998D01*
X167406694Y-77785123D01*
X167506573Y-77785123D01*
X167506573Y-77885246D01*
X167606695Y-77885246D01*
X167606695Y-77985124D01*
X167806697Y-77985124D01*
X167806697Y-77885246D01*
X167706574Y-77885246D01*
X167706574Y-77785123D01*
X167606695Y-77785123D01*
X167606695Y-77284998D01*
X167806697Y-77284998D01*
X167806697Y-77885246D01*
X167906819Y-77885246D01*
X167906819Y-77785123D01*
X168006698Y-77785123D01*
X168006698Y-77284998D01*
X167806697Y-77284998D01*
X167606695Y-77284998D01*
X167406694Y-77284998D01*
X167206693Y-77284998D01*
X166806447Y-77284998D01*
X166806447Y-77385121D01*
X166706568Y-77385121D01*
X166706568Y-77885246D01*
X166606445Y-77885246D01*
X166606445Y-77585122D01*
X166506567Y-77585122D01*
X166506567Y-77484999D01*
X166606445Y-77484999D01*
X166606445Y-77185120D01*
X166506567Y-77185120D01*
X166506567Y-77084997D01*
X166006442Y-77084997D01*
X165606440Y-77084997D01*
X165406438Y-77084997D01*
X165406438Y-77685245D01*
X165206437Y-77685245D01*
X165206437Y-77084997D01*
X165006436Y-77084997D01*
X164806435Y-77084997D01*
X164406188Y-77084997D01*
X164406188Y-77185120D01*
X164306310Y-77185120D01*
X164306310Y-77385121D01*
X164506311Y-77385121D01*
X164506311Y-77185120D01*
X164706312Y-77185120D01*
X164706312Y-77484999D01*
X164406188Y-77484999D01*
X164406188Y-77585122D01*
X164306310Y-77585122D01*
X164306310Y-77985124D01*
X164106309Y-77985124D01*
X164106309Y-77885246D01*
X164206187Y-77885246D01*
X164206187Y-77185120D01*
X164106309Y-77185120D01*
X164106309Y-77084997D01*
X163706062Y-77084997D01*
X163706062Y-77185120D01*
X163606184Y-77185120D01*
X163606184Y-77885246D01*
X163506061Y-77885246D01*
X163506061Y-77785123D01*
X163306060Y-77785123D01*
X163306060Y-77885246D01*
X163106059Y-77885246D01*
X163106059Y-77585122D01*
X163406182Y-77585122D01*
X163406182Y-77484999D01*
X163506061Y-77484999D01*
X163506061Y-77185120D01*
X163406182Y-77185120D01*
X163406182Y-77084997D01*
X163005936Y-77084997D01*
X163005936Y-77185120D01*
X162906057Y-77185120D01*
X162906057Y-77385121D01*
X163106059Y-77385121D01*
X163106059Y-77185120D01*
X163306060Y-77185120D01*
X163306060Y-77484999D01*
X163005936Y-77484999D01*
X163005936Y-77585122D01*
X162906057Y-77585122D01*
X162906057Y-77985124D01*
X160894540Y-77985124D01*
X160627791Y-77585000D01*
X161238974Y-76668226D01*
X162906057Y-76668226D01*
X177207484Y-76668226D01*
X178041026Y-76668226D01*
X178652209Y-77585000D01*
G37*
D12*
%TO.C,JP2*%
X186420000Y-76070000D02*
X188420000Y-76070000D01*
X186420000Y-78870000D02*
X186420000Y-76070000D01*
X188420000Y-76070000D02*
X188420000Y-78870000D01*
X188420000Y-78870000D02*
X186420000Y-78870000D01*
%TO.C,U2*%
X156885000Y-68250000D02*
X156885000Y-69500000D01*
X156885000Y-71500000D02*
X156885000Y-72750000D01*
X156885000Y-72750000D02*
X182405000Y-72750000D01*
X182405000Y-68250000D02*
X156885000Y-68250000D01*
X182405000Y-72750000D02*
X182405000Y-68250000D01*
X156885000Y-69500000D02*
G75*
G02*
X156885000Y-71500000I0J-1000000D01*
G01*
%TO.C,R1*%
X183335000Y-71942936D02*
X183335000Y-73397064D01*
X185155000Y-71942936D02*
X185155000Y-73397064D01*
%TO.C,U1*%
X127532500Y-64722500D02*
X127805000Y-64722500D01*
X127532500Y-70485000D02*
X127532500Y-64722500D01*
X127532500Y-70485000D02*
X127532500Y-76247500D01*
X127532500Y-76247500D02*
X127805000Y-76247500D01*
X127805000Y-76247500D02*
X127805000Y-78060000D01*
X148247500Y-64722500D02*
X147975000Y-64722500D01*
X148247500Y-70485000D02*
X148247500Y-64722500D01*
X148247500Y-70485000D02*
X148247500Y-76247500D01*
X148247500Y-76247500D02*
X147975000Y-76247500D01*
%TD*%
M02*
